<svg width="40" height="46" viewBox="0 0 40 46" fill="none" xmlns="http://www.w3.org/2000/svg">
<g id="bars" clip-path="url(#clip0_272_2452)">
<path id="Vector" d="M38.9453 11.3984H1.67969C1.09724 11.3984 0.625 10.9262 0.625 10.3438V7.53125C0.625 6.9488 1.09724 6.47656 1.67969 6.47656H38.9453C39.5278 6.47656 40 6.9488 40 7.53125V10.3438C40 10.9262 39.5278 11.3984 38.9453 11.3984ZM38.9453 25.4609H1.67969C1.09724 25.4609 0.625 24.9887 0.625 24.4062V21.5938C0.625 21.0113 1.09724 20.5391 1.67969 20.5391H38.9453C39.5278 20.5391 40 21.0113 40 21.5938V24.4062C40 24.9887 39.5278 25.4609 38.9453 25.4609ZM38.9453 39.5234H1.67969C1.09724 39.5234 0.625 39.0512 0.625 38.4688V35.6562C0.625 35.0738 1.09724 34.6016 1.67969 34.6016H38.9453C39.5278 34.6016 40 35.0738 40 35.6562V38.4688C40 39.0512 39.5278 39.5234 38.9453 39.5234Z" fill="black"/>
</g>
<defs>
<clipPath id="clip0_272_2452">
<rect width="39.375" height="45" fill="white" transform="translate(0.625 0.5)"/>
</clipPath>
</defs>
</svg>
