<svg width="10" height="16" viewBox="0 0 10 16" fill="none" xmlns="http://www.w3.org/2000/svg">
<g id="times" clip-path="url(#clip0_1_3044)">
<path id="Vector" d="M6.48855 7.99764L9.8548 4.63139C10.0495 4.4367 10.0495 4.12076 9.8548 3.92576L9.07261 3.14357C8.87792 2.94889 8.56198 2.94889 8.36698 3.14357L5.00105 6.51014L1.6348 3.14389C1.44011 2.9492 1.12417 2.9492 0.929172 3.14389L0.147297 3.92576C-0.0473901 4.12045 -0.0473901 4.43639 0.147297 4.63139L3.51355 7.99764L0.147297 11.3639C-0.0473901 11.5586 -0.0473901 11.8745 0.147297 12.0695L0.929485 12.8517C1.12417 13.0464 1.44011 13.0464 1.63511 12.8517L5.00105 9.48514L8.3673 12.8514C8.56199 13.0461 8.87792 13.0461 9.07292 12.8514L9.85511 12.0692C10.0498 11.8745 10.0498 11.5586 9.85511 11.3636L6.48855 7.99764Z" fill="black"/>
</g>
<defs>
<clipPath id="clip0_1_3044">
<rect width="10" height="16" fill="white" transform="translate(0.0010376)"/>
</clipPath>
</defs>
</svg>
