<svg width="1138" height="2017" viewBox="0 0 1138 2017" fill="none" xmlns="http://www.w3.org/2000/svg">
<g style="mix-blend-mode:hard-light" filter="url(#filter0_f_212_4366)">
<ellipse cx="574.835" cy="1008.35" rx="137.444" ry="718.713" fill="#5D97E6"/>
</g>
<g style="mix-blend-mode:hard-light" filter="url(#filter1_f_212_4366)">
<path d="M683.31 665.765C719.834 698.508 749.43 463.341 778.704 444.034C882.695 375.446 865.558 1426.92 758.556 1571.21C657.324 1707.71 553.058 922.858 553.058 922.858C553.058 922.858 541.066 696.765 561.216 612.665C579.4 536.767 594.956 558.599 620.959 585.268C641.503 606.337 662.602 647.201 683.31 665.765Z" fill="#FDC251"/>
</g>
<g style="mix-blend-mode:hard-light" filter="url(#filter2_f_212_4366)">
<path d="M386.114 805.551C412.352 838.276 433.613 603.235 454.642 583.939C529.347 515.387 517.036 1566.3 440.169 1710.51C367.446 1846.94 292.544 1062.51 292.544 1062.51C292.544 1062.51 283.929 836.534 298.404 752.479C311.468 676.622 322.643 698.442 341.322 725.097C356.08 746.155 371.238 786.997 386.114 805.551Z" fill="#F7B4F5"/>
</g>
<defs>
<filter id="filter0_f_212_4366" x="148.27" y="0.513489" width="853.129" height="2015.67" filterUnits="userSpaceOnUse" color-interpolation-filters="sRGB">
<feFlood flood-opacity="0" result="BackgroundImageFix"/>
<feBlend mode="normal" in="SourceGraphic" in2="BackgroundImageFix" result="shape"/>
<feGaussianBlur stdDeviation="144.56" result="effect1_foregroundBlur_212_4366"/>
</filter>
<filter id="filter1_f_212_4366" x="260.396" y="151.702" width="877.091" height="1724.57" filterUnits="userSpaceOnUse" color-interpolation-filters="sRGB">
<feFlood flood-opacity="0" result="BackgroundImageFix"/>
<feBlend mode="normal" in="SourceGraphic" in2="BackgroundImageFix" result="shape"/>
<feGaussianBlur stdDeviation="144.56" result="effect1_foregroundBlur_212_4366"/>
</filter>
<filter id="filter2_f_212_4366" x="0.8797" y="291.609" width="792.928" height="1723.95" filterUnits="userSpaceOnUse" color-interpolation-filters="sRGB">
<feFlood flood-opacity="0" result="BackgroundImageFix"/>
<feBlend mode="normal" in="SourceGraphic" in2="BackgroundImageFix" result="shape"/>
<feGaussianBlur stdDeviation="144.56" result="effect1_foregroundBlur_212_4366"/>
</filter>
</defs>
</svg>
