<svg width="728" height="2263" viewBox="0 0 728 2263" fill="none" xmlns="http://www.w3.org/2000/svg">
<g style="mix-blend-mode:hard-light" filter="url(#filter0_f_212_3790)">
<ellipse cx="574.835" cy="1131.56" rx="137.444" ry="842.037" fill="#5D97E6"/>
</g>
<g style="mix-blend-mode:hard-light" filter="url(#filter1_f_212_3790)">
<path d="M683.309 730.192C719.833 768.552 749.429 493.033 778.703 470.413C882.695 390.056 865.557 1621.96 758.555 1791C657.323 1950.93 553.057 1031.4 553.057 1031.4C553.057 1031.4 541.065 766.511 561.215 667.98C579.399 579.059 594.955 604.637 620.958 635.882C641.502 660.567 662.601 708.442 683.309 730.192Z" fill="#FDC251"/>
</g>
<g style="mix-blend-mode:hard-light" filter="url(#filter2_f_212_3790)">
<path d="M386.114 893.963C412.352 932.302 433.613 656.931 454.642 634.324C529.347 554.01 517.036 1785.25 440.169 1954.2C367.446 2114.04 292.544 1195.01 292.544 1195.01C292.544 1195.01 283.929 930.262 298.404 831.784C311.468 742.911 322.643 768.475 341.322 799.703C356.08 824.375 371.238 872.225 386.114 893.963Z" fill="#F7B4F5"/>
</g>
<defs>
<filter id="filter0_f_212_3790" x="148.27" y="0.399231" width="853.129" height="2262.31" filterUnits="userSpaceOnUse" color-interpolation-filters="sRGB">
<feFlood flood-opacity="0" result="BackgroundImageFix"/>
<feBlend mode="normal" in="SourceGraphic" in2="BackgroundImageFix" result="shape"/>
<feGaussianBlur stdDeviation="144.56" result="effect1_foregroundBlur_212_3790"/>
</filter>
<filter id="filter1_f_212_3790" x="260.395" y="177.531" width="877.092" height="1921.27" filterUnits="userSpaceOnUse" color-interpolation-filters="sRGB">
<feFlood flood-opacity="0" result="BackgroundImageFix"/>
<feBlend mode="normal" in="SourceGraphic" in2="BackgroundImageFix" result="shape"/>
<feGaussianBlur stdDeviation="144.56" result="effect1_foregroundBlur_212_3790"/>
</filter>
<filter id="filter2_f_212_3790" x="0.8797" y="341.444" width="792.928" height="1920.55" filterUnits="userSpaceOnUse" color-interpolation-filters="sRGB">
<feFlood flood-opacity="0" result="BackgroundImageFix"/>
<feBlend mode="normal" in="SourceGraphic" in2="BackgroundImageFix" result="shape"/>
<feGaussianBlur stdDeviation="144.56" result="effect1_foregroundBlur_212_3790"/>
</filter>
</defs>
</svg>
