<svg width="232" height="129" viewBox="0 0 232 129" fill="none" xmlns="http://www.w3.org/2000/svg">
<path d="M83.3945 46.2397C35.2233 43.3996 14.044 80.1683 8.69908 118.626" stroke="black" stroke-width="2.7411" stroke-miterlimit="10" stroke-linecap="round" stroke-linejoin="round"/>
<path d="M15.9131 118.626L8.5636 126.993L1.48137 115.201" stroke="black" stroke-width="2.7411" stroke-miterlimit="10" stroke-linecap="round" stroke-linejoin="round"/>
<path d="M79.6198 20.8452L82.0198 7.16522C82.0838 6.81322 81.9318 6.58122 81.5638 6.46922C81.2118 6.35722 80.7318 6.30122 80.1238 6.30122H79.8598L80.0278 5.46122H86.0038L85.8358 6.30122H85.5718C85.0118 6.30122 84.5238 6.35722 84.1078 6.46922C83.7078 6.56522 83.4758 6.78122 83.4118 7.11722L80.9878 20.7972C80.9238 21.1492 81.0758 21.3812 81.4438 21.4932C81.8118 21.6052 82.2918 21.6612 82.8838 21.6612H83.1478L82.9798 22.5012H77.0038L77.1718 21.6612H77.4358C77.9958 21.6612 78.4838 21.6132 78.8998 21.5172C79.3158 21.4052 79.5558 21.1812 79.6198 20.8452ZM87.0343 22.5012L88.8583 12.1812C88.9063 11.9412 88.8743 11.7572 88.7623 11.6292C88.6503 11.5012 88.4663 11.4052 88.2103 11.3412C87.9543 11.2612 87.6343 11.1812 87.2503 11.1012L86.9623 11.0532L87.1063 10.3092H90.4423L89.8183 13.8612L89.8663 14.0772L88.3783 22.5012H87.0343ZM96.5143 18.2292C96.4503 18.5972 96.3863 18.9492 96.3223 19.2852C96.2583 19.6212 96.2023 19.9332 96.1543 20.2212C96.1223 20.4932 96.1063 20.7252 96.1063 20.9172C96.1063 21.1892 96.1783 21.3972 96.3223 21.5412C96.4663 21.6692 96.6663 21.7332 96.9223 21.7332C97.1943 21.7332 97.4423 21.7012 97.6663 21.6372C97.8903 21.5572 98.0903 21.4852 98.2663 21.4212C98.4423 21.3412 98.5623 21.2932 98.6263 21.2772L98.4583 22.1172C98.3463 22.1972 98.1943 22.2852 98.0023 22.3812C97.8103 22.4612 97.5943 22.5252 97.3543 22.5732C97.1303 22.6372 96.8983 22.6692 96.6583 22.6692C96.2903 22.6692 95.9623 22.6132 95.6743 22.5012C95.3863 22.3892 95.1623 22.2052 95.0023 21.9492C94.8423 21.6932 94.7623 21.3732 94.7623 20.9892C94.7623 20.7492 94.7783 20.4772 94.8103 20.1732C94.8583 19.8692 94.9143 19.5172 94.9783 19.1172C95.0423 18.7172 95.1223 18.2772 95.2183 17.7972L95.7943 14.8692C95.8743 14.4372 95.9383 14.0532 95.9863 13.7172C96.0503 13.3652 96.0823 13.0052 96.0823 12.6372C96.0823 12.1732 95.9463 11.7972 95.6743 11.5092C95.4183 11.2212 95.0023 11.0772 94.4263 11.0772C93.8343 11.0772 93.2503 11.2692 92.6743 11.6532C92.0983 12.0212 91.5223 12.5492 90.9463 13.2372C90.3863 13.9252 89.8183 14.7412 89.2423 15.6852L88.9303 15.0612C89.5223 14.0532 90.1223 13.1732 90.7303 12.4212C91.3383 11.6692 91.9783 11.0932 92.6503 10.6932C93.3223 10.2772 94.0343 10.0692 94.7863 10.0692C95.6183 10.0692 96.2663 10.3012 96.7303 10.7652C97.2103 11.2132 97.4503 11.8212 97.4503 12.5892C97.4503 12.9252 97.4183 13.2932 97.3543 13.6932C97.3063 14.0772 97.2423 14.4772 97.1623 14.8932L96.5143 18.2292ZM104.071 22.7652C103.575 22.7652 103.135 22.6852 102.751 22.5252C102.367 22.3652 102.063 22.1092 101.839 21.7572C101.631 21.3892 101.527 20.9172 101.527 20.3412C101.527 20.0372 101.543 19.7092 101.575 19.3572C101.623 19.0052 101.679 18.6292 101.743 18.2292L103.039 10.6212L103.591 10.3092H107.935L107.767 11.1972H100.735L100.855 10.4292H100.951C101.415 10.4292 101.823 10.3972 102.175 10.3332C102.527 10.2692 102.815 10.1492 103.039 9.97322C103.263 9.78122 103.399 9.52522 103.447 9.20522L103.831 6.94922H105.055L103.087 18.2772C103.039 18.5492 102.999 18.8052 102.967 19.0452C102.935 19.2852 102.903 19.5172 102.871 19.7412C102.855 19.9492 102.847 20.1492 102.847 20.3412C102.847 20.8372 102.967 21.2052 103.207 21.4452C103.447 21.6692 103.815 21.7812 104.311 21.7812C104.647 21.7812 104.959 21.7492 105.247 21.6852C105.535 21.6212 105.775 21.5492 105.967 21.4692C106.175 21.3892 106.311 21.3492 106.375 21.3492L106.207 22.2852C105.983 22.3812 105.687 22.4852 105.319 22.5972C104.967 22.7092 104.551 22.7652 104.071 22.7652ZM113.477 22.7892C112.549 22.7892 111.717 22.5892 110.981 22.1892C110.261 21.7732 109.685 21.1732 109.253 20.3892C108.837 19.5892 108.629 18.6132 108.629 17.4612C108.629 16.5492 108.773 15.6532 109.061 14.7732C109.349 13.8932 109.765 13.1012 110.309 12.3972C110.853 11.6772 111.509 11.1092 112.277 10.6932C113.061 10.2772 113.925 10.0692 114.869 10.0692C115.621 10.0692 116.261 10.1972 116.789 10.4532C117.317 10.6932 117.717 11.0372 117.989 11.4852C118.261 11.9332 118.397 12.4372 118.397 12.9972C118.397 13.7492 118.205 14.4052 117.821 14.9652C117.437 15.5252 116.869 15.9892 116.117 16.3572C115.365 16.7252 114.429 16.9972 113.309 17.1732C112.205 17.3492 110.909 17.4372 109.421 17.4372L109.589 16.6692C110.965 16.6372 112.125 16.5412 113.069 16.3812C114.029 16.2212 114.797 15.9892 115.373 15.6852C115.965 15.3812 116.397 15.0132 116.669 14.5812C116.941 14.1332 117.077 13.6052 117.077 12.9972C117.077 12.5812 116.989 12.2292 116.813 11.9412C116.637 11.6372 116.381 11.4052 116.045 11.2452C115.725 11.0692 115.317 10.9812 114.821 10.9812C114.149 10.9812 113.525 11.1492 112.949 11.4852C112.373 11.8212 111.861 12.2932 111.413 12.9012C110.981 13.4932 110.645 14.1892 110.405 14.9892C110.165 15.7732 110.045 16.6292 110.045 17.5572C110.045 18.5012 110.189 19.2932 110.477 19.9332C110.765 20.5732 111.165 21.0532 111.677 21.3732C112.205 21.6932 112.813 21.8532 113.501 21.8532C114.125 21.8532 114.669 21.7492 115.133 21.5412C115.597 21.3332 116.005 21.0452 116.357 20.6772C116.709 20.2932 117.021 19.8532 117.293 19.3572L118.061 19.9092C117.773 20.4692 117.405 20.9732 116.957 21.4212C116.509 21.8532 115.989 22.1892 115.397 22.4292C114.821 22.6692 114.181 22.7892 113.477 22.7892ZM115.037 5.55722C115.197 5.28522 115.333 5.06122 115.445 4.88522C115.573 4.70922 115.701 4.58122 115.829 4.50122C115.973 4.40522 116.133 4.35722 116.309 4.35722C116.533 4.35722 116.717 4.42122 116.861 4.54922C117.005 4.67722 117.077 4.84522 117.077 5.05322C117.077 5.19722 117.037 5.34122 116.957 5.48522C116.877 5.62922 116.773 5.77322 116.645 5.91722C116.533 6.06122 116.397 6.20522 116.237 6.34922L113.765 8.74922H113.333L113.381 8.36522L115.037 5.55722ZM128.009 22.7652L129.881 12.2052L129.977 12.3252L130.649 10.2372H131.585L129.353 22.8612C129.161 23.9492 128.809 24.8692 128.297 25.6212C127.785 26.3892 127.121 26.9652 126.305 27.3492C125.505 27.7492 124.553 27.9492 123.449 27.9492C122.697 27.9492 122.001 27.8532 121.361 27.6612C120.737 27.4852 120.201 27.2452 119.753 26.9412C119.321 26.6532 118.993 26.3492 118.769 26.0292L119.105 24.2292H120.641L120.209 26.6052C120.113 26.5892 120.025 26.5412 119.945 26.4612C119.881 26.3972 119.825 26.3012 119.777 26.1732C119.729 26.0452 119.697 25.8932 119.681 25.7172C119.665 25.5412 119.673 25.3332 119.705 25.0932C119.849 25.4612 120.097 25.7892 120.449 26.0772C120.817 26.3812 121.257 26.6132 121.769 26.7732C122.281 26.9332 122.849 27.0132 123.473 27.0132C124.321 27.0132 125.049 26.8612 125.657 26.5572C126.281 26.2532 126.785 25.7812 127.169 25.1412C127.553 24.5172 127.833 23.7252 128.009 22.7652ZM130.817 13.3812L130.121 14.3412C130.041 13.6212 129.849 13.0132 129.545 12.5172C129.241 12.0212 128.849 11.6452 128.369 11.3892C127.889 11.1172 127.353 10.9812 126.761 10.9812C126.121 10.9812 125.529 11.1092 124.985 11.3652C124.441 11.6212 123.953 11.9732 123.521 12.4212C123.105 12.8532 122.745 13.3652 122.441 13.9572C122.153 14.5492 121.929 15.1892 121.769 15.8772C121.625 16.5652 121.553 17.2772 121.553 18.0132C121.553 18.7332 121.633 19.3732 121.793 19.9332C121.969 20.4932 122.241 20.9412 122.609 21.2772C122.977 21.5972 123.441 21.7572 124.001 21.7572C124.673 21.7572 125.313 21.5492 125.921 21.1332C126.529 20.7172 127.113 20.1412 127.673 19.4052C128.249 18.6532 128.801 17.7812 129.329 16.7892L129.641 17.5092C129.097 18.5812 128.529 19.5012 127.937 20.2692C127.345 21.0372 126.713 21.6292 126.041 22.0452C125.385 22.4612 124.657 22.6692 123.857 22.6692C123.025 22.6692 122.329 22.4692 121.769 22.0692C121.225 21.6692 120.809 21.1172 120.521 20.4132C120.249 19.7092 120.113 18.8852 120.113 17.9412C120.113 17.1092 120.217 16.3092 120.425 15.5412C120.633 14.7572 120.929 14.0372 121.313 13.3812C121.697 12.7092 122.161 12.1252 122.705 11.6292C123.265 11.1332 123.881 10.7492 124.553 10.4772C125.241 10.2052 125.985 10.0692 126.785 10.0692C127.313 10.0692 127.801 10.1492 128.249 10.3092C128.697 10.4532 129.089 10.6692 129.425 10.9572C129.777 11.2452 130.065 11.5972 130.289 12.0132C130.529 12.4132 130.705 12.8692 130.817 13.3812ZM134.001 22.5012L135.825 12.1812C135.873 11.9412 135.841 11.7572 135.729 11.6292C135.617 11.5012 135.433 11.4052 135.177 11.3412C134.937 11.2612 134.617 11.1812 134.217 11.1012L133.953 11.0532L134.097 10.3092H137.433L136.737 14.2932L136.833 14.0772L135.345 22.5012H134.001ZM141.393 10.1892L141.153 11.6532C141.073 11.6372 140.937 11.6052 140.745 11.5572C140.569 11.5092 140.361 11.4852 140.121 11.4852C139.753 11.4852 139.393 11.5972 139.041 11.8212C138.705 12.0452 138.377 12.3652 138.057 12.7812C137.753 13.1812 137.449 13.6692 137.145 14.2452C136.841 14.8052 136.537 15.4292 136.233 16.1172L135.921 15.6372C136.225 14.9332 136.537 14.2532 136.857 13.5972C137.193 12.9252 137.545 12.3252 137.913 11.7972C138.281 11.2692 138.681 10.8532 139.113 10.5492C139.561 10.2292 140.049 10.0692 140.577 10.0692C140.801 10.0692 140.977 10.0852 141.105 10.1172C141.249 10.1492 141.345 10.1732 141.393 10.1892ZM152.038 13.4052L151.39 14.3412C151.31 13.6212 151.126 13.0212 150.838 12.5412C150.566 12.0452 150.206 11.6612 149.758 11.3892C149.31 11.1172 148.814 10.9812 148.27 10.9812C147.678 10.9812 147.126 11.1252 146.614 11.4132C146.102 11.6852 145.638 12.0612 145.222 12.5412C144.822 13.0212 144.478 13.5732 144.19 14.1972C143.918 14.8212 143.702 15.4852 143.542 16.1892C143.398 16.8772 143.326 17.5652 143.326 18.2532C143.326 19.0052 143.414 19.6532 143.59 20.1972C143.766 20.7252 144.022 21.1332 144.358 21.4212C144.694 21.7092 145.102 21.8532 145.582 21.8532C146.238 21.8532 146.846 21.6452 147.406 21.2292C147.966 20.7972 148.51 20.2052 149.038 19.4532C149.566 18.7012 150.094 17.8292 150.622 16.8372L150.91 17.5572C150.382 18.6292 149.838 19.5572 149.278 20.3412C148.734 21.1092 148.15 21.7092 147.526 22.1412C146.902 22.5572 146.198 22.7652 145.414 22.7652C144.678 22.7652 144.046 22.5892 143.518 22.2372C142.99 21.8692 142.582 21.3412 142.294 20.6532C142.022 19.9652 141.886 19.1492 141.886 18.2052C141.886 17.3892 141.982 16.5972 142.174 15.8292C142.382 15.0452 142.67 14.3092 143.038 13.6212C143.422 12.9172 143.878 12.3012 144.406 11.7732C144.934 11.2452 145.526 10.8292 146.182 10.5252C146.838 10.2212 147.534 10.0692 148.27 10.0692C148.942 10.0692 149.534 10.2052 150.046 10.4772C150.574 10.7332 151.006 11.1092 151.342 11.6052C151.694 12.1012 151.926 12.7012 152.038 13.4052ZM152.878 10.2852L151.342 19.0212C151.31 19.2772 151.27 19.5252 151.222 19.7652C151.19 19.9892 151.158 20.2052 151.126 20.4132C151.11 20.6212 151.102 20.8052 151.102 20.9652C151.102 21.2212 151.174 21.4132 151.318 21.5412C151.462 21.6692 151.662 21.7332 151.918 21.7332C152.318 21.7332 152.67 21.6612 152.974 21.5172C153.294 21.3732 153.51 21.2932 153.622 21.2772L153.454 22.1172C153.342 22.1972 153.19 22.2852 152.998 22.3812C152.806 22.4612 152.59 22.5252 152.35 22.5732C152.126 22.6372 151.894 22.6692 151.654 22.6692C151.302 22.6692 150.99 22.6132 150.718 22.5012C150.446 22.3732 150.23 22.1812 150.07 21.9252C149.91 21.6692 149.83 21.3492 149.83 20.9652C149.83 20.6772 149.862 20.3092 149.926 19.8612C149.99 19.3972 150.07 18.9492 150.166 18.5172L150.07 18.6852L151.15 12.5412L151.246 12.3252L152.062 10.2852H152.878ZM158.821 22.7652C158.325 22.7652 157.885 22.6852 157.501 22.5252C157.117 22.3652 156.813 22.1092 156.589 21.7572C156.381 21.3892 156.277 20.9172 156.277 20.3412C156.277 20.0372 156.293 19.7092 156.325 19.3572C156.373 19.0052 156.429 18.6292 156.493 18.2292L157.789 10.6212L158.341 10.3092H162.685L162.517 11.1972H155.485L155.605 10.4292H155.701C156.165 10.4292 156.573 10.3972 156.925 10.3332C157.277 10.2692 157.565 10.1492 157.789 9.97322C158.013 9.78122 158.149 9.52522 158.197 9.20522L158.581 6.94922H159.805L157.837 18.2772C157.789 18.5492 157.749 18.8052 157.717 19.0452C157.685 19.2852 157.653 19.5172 157.621 19.7412C157.605 19.9492 157.597 20.1492 157.597 20.3412C157.597 20.8372 157.717 21.2052 157.957 21.4452C158.197 21.6692 158.565 21.7812 159.061 21.7812C159.397 21.7812 159.709 21.7492 159.997 21.6852C160.285 21.6212 160.525 21.5492 160.717 21.4692C160.925 21.3892 161.061 21.3492 161.125 21.3492L160.957 22.2852C160.733 22.3812 160.437 22.4852 160.069 22.5972C159.717 22.7092 159.301 22.7652 158.821 22.7652ZM164.551 20.9892C164.551 20.7492 164.567 20.4772 164.599 20.1732C164.647 19.8532 164.703 19.5012 164.767 19.1172C164.847 18.7172 164.927 18.2852 165.007 17.8212L165.991 12.2052C166.039 11.9492 166.007 11.7572 165.895 11.6292C165.783 11.5012 165.599 11.4052 165.343 11.3412C165.087 11.2612 164.767 11.1812 164.383 11.1012L164.095 11.0532L164.263 10.3092H167.671L166.279 18.2532C166.215 18.5892 166.151 18.9332 166.087 19.2852C166.039 19.6212 165.991 19.9332 165.943 20.2212C165.911 20.4932 165.895 20.7252 165.895 20.9172C165.895 21.1892 165.967 21.3972 166.111 21.5412C166.271 21.6692 166.479 21.7332 166.735 21.7332C166.991 21.7332 167.231 21.7012 167.455 21.6372C167.679 21.5572 167.879 21.4852 168.055 21.4212C168.231 21.3412 168.351 21.2932 168.415 21.2772L168.271 22.1172C168.143 22.1972 167.983 22.2852 167.791 22.3812C167.599 22.4612 167.391 22.5252 167.167 22.5732C166.943 22.6372 166.703 22.6692 166.447 22.6692C166.079 22.6692 165.751 22.6132 165.463 22.5012C165.191 22.3892 164.967 22.2052 164.791 21.9492C164.631 21.6932 164.551 21.3732 164.551 20.9892ZM166.303 5.86922C166.303 5.50122 166.407 5.22122 166.615 5.02922C166.839 4.83722 167.111 4.74122 167.431 4.74122C167.751 4.74122 168.015 4.83722 168.223 5.02922C168.447 5.22122 168.559 5.50122 168.559 5.86922C168.559 6.20522 168.447 6.47722 168.223 6.68522C168.015 6.87722 167.751 6.97322 167.431 6.97322C167.111 6.97322 166.839 6.87722 166.615 6.68522C166.407 6.47722 166.303 6.20522 166.303 5.86922ZM179.557 18.4932C179.685 18.1732 179.789 17.8452 179.869 17.5092C179.949 17.1732 180.005 16.8372 180.037 16.5012C180.085 16.1492 180.109 15.8132 180.109 15.4932C180.109 14.5972 179.965 13.8132 179.677 13.1412C179.389 12.4692 178.981 11.9412 178.453 11.5572C177.925 11.1732 177.285 10.9812 176.533 10.9812C176.021 10.9812 175.541 11.0692 175.093 11.2452C174.645 11.4212 174.245 11.6612 173.893 11.9652C173.541 12.2692 173.229 12.6292 172.957 13.0452C172.685 13.4452 172.461 13.8852 172.285 14.3652C172.157 14.6692 172.045 14.9972 171.949 15.3492C171.869 15.6852 171.805 16.0212 171.757 16.3572C171.725 16.6932 171.709 17.0292 171.709 17.3652C171.709 18.2452 171.853 19.0292 172.141 19.7172C172.429 20.3892 172.837 20.9172 173.365 21.3012C173.909 21.6852 174.549 21.8772 175.285 21.8772C175.813 21.8772 176.293 21.7892 176.725 21.6132C177.173 21.4372 177.573 21.1972 177.925 20.8932C178.293 20.5732 178.605 20.2132 178.861 19.8132C179.133 19.3972 179.365 18.9572 179.557 18.4932ZM170.269 17.2452C170.269 16.4772 170.365 15.7332 170.557 15.0132C170.765 14.2932 171.053 13.6372 171.421 13.0452C171.805 12.4372 172.253 11.9092 172.765 11.4612C173.293 11.0132 173.869 10.6692 174.493 10.4292C175.133 10.1892 175.813 10.0692 176.533 10.0692C177.525 10.0692 178.389 10.3092 179.125 10.7892C179.877 11.2692 180.469 11.9252 180.901 12.7572C181.333 13.5892 181.549 14.5412 181.549 15.6132C181.549 16.3972 181.445 17.1492 181.237 17.8692C181.045 18.5732 180.757 19.2292 180.373 19.8372C180.005 20.4292 179.565 20.9492 179.053 21.3972C178.541 21.8452 177.965 22.1892 177.325 22.4292C176.685 22.6692 176.005 22.7892 175.285 22.7892C174.325 22.7892 173.461 22.5492 172.693 22.0692C171.941 21.5892 171.349 20.9332 170.917 20.1012C170.485 19.2532 170.269 18.3012 170.269 17.2452ZM184.159 22.5012L185.983 12.1812C186.031 11.9412 185.999 11.7572 185.887 11.6292C185.775 11.5012 185.591 11.4052 185.335 11.3412C185.079 11.2612 184.759 11.1812 184.375 11.1012L184.087 11.0532L184.231 10.3092H187.567L186.943 13.8612L186.991 14.0772L185.503 22.5012H184.159ZM193.639 18.2292C193.575 18.5972 193.511 18.9492 193.447 19.2852C193.383 19.6212 193.327 19.9332 193.279 20.2212C193.247 20.4932 193.231 20.7252 193.231 20.9172C193.231 21.1892 193.303 21.3972 193.447 21.5412C193.591 21.6692 193.791 21.7332 194.047 21.7332C194.319 21.7332 194.567 21.7012 194.791 21.6372C195.015 21.5572 195.215 21.4852 195.391 21.4212C195.567 21.3412 195.687 21.2932 195.751 21.2772L195.583 22.1172C195.471 22.1972 195.319 22.2852 195.127 22.3812C194.935 22.4612 194.719 22.5252 194.479 22.5732C194.255 22.6372 194.023 22.6692 193.783 22.6692C193.415 22.6692 193.087 22.6132 192.799 22.5012C192.511 22.3892 192.287 22.2052 192.127 21.9492C191.967 21.6932 191.887 21.3732 191.887 20.9892C191.887 20.7492 191.903 20.4772 191.935 20.1732C191.983 19.8692 192.039 19.5172 192.103 19.1172C192.167 18.7172 192.247 18.2772 192.343 17.7972L192.919 14.8692C192.999 14.4372 193.063 14.0532 193.111 13.7172C193.175 13.3652 193.207 13.0052 193.207 12.6372C193.207 12.1732 193.071 11.7972 192.799 11.5092C192.543 11.2212 192.127 11.0772 191.551 11.0772C190.959 11.0772 190.375 11.2692 189.799 11.6532C189.223 12.0212 188.647 12.5492 188.071 13.2372C187.511 13.9252 186.943 14.7412 186.367 15.6852L186.055 15.0612C186.647 14.0532 187.247 13.1732 187.855 12.4212C188.463 11.6692 189.103 11.0932 189.775 10.6932C190.447 10.2772 191.159 10.0692 191.911 10.0692C192.743 10.0692 193.391 10.3012 193.855 10.7652C194.335 11.2132 194.575 11.8212 194.575 12.5892C194.575 12.9252 194.543 13.2932 194.479 13.6932C194.431 14.0772 194.367 14.4772 194.287 14.8932L193.639 18.2292ZM120.637 50.5012H119.293L118.357 40.1812C118.341 39.9732 118.269 39.8052 118.141 39.6772C118.029 39.5332 117.845 39.4212 117.589 39.3412C117.349 39.2612 117.029 39.1812 116.629 39.1012L116.389 39.0532L116.533 38.3092H119.413L120.373 49.8532H119.965C120.397 48.8932 120.821 47.9332 121.237 46.9732C121.669 46.0132 122.093 45.0532 122.509 44.0932C122.941 43.1332 123.365 42.1732 123.781 41.2132C124.213 40.2372 124.637 39.2692 125.053 38.3092H126.157L127.669 49.8772L127.381 49.8292C127.765 48.8692 128.149 47.9172 128.533 46.9732C128.933 46.0132 129.325 45.0532 129.709 44.0932C130.109 43.1172 130.493 42.1492 130.861 41.1892C131.245 40.2292 131.621 39.2692 131.989 38.3092H133.333V38.4772C132.901 39.4852 132.461 40.4932 132.013 41.5012C131.581 42.4932 131.141 43.4932 130.693 44.5012C130.245 45.5092 129.797 46.5172 129.349 47.5252C128.901 48.5172 128.453 49.5092 128.005 50.5012H126.637L125.125 39.6532L125.677 39.3652C125.133 40.5972 124.581 41.8372 124.021 43.0852C123.461 44.3332 122.901 45.5732 122.341 46.8052C121.781 48.0372 121.213 49.2692 120.637 50.5012ZM138.965 50.7892C138.037 50.7892 137.205 50.5892 136.469 50.1892C135.749 49.7732 135.173 49.1732 134.741 48.3892C134.325 47.5892 134.117 46.6132 134.117 45.4612C134.117 44.5492 134.261 43.6532 134.549 42.7732C134.837 41.8932 135.253 41.1012 135.797 40.3972C136.341 39.6772 136.997 39.1092 137.765 38.6932C138.549 38.2772 139.413 38.0692 140.357 38.0692C141.109 38.0692 141.749 38.1972 142.277 38.4532C142.805 38.6932 143.205 39.0372 143.477 39.4852C143.749 39.9332 143.885 40.4372 143.885 40.9972C143.885 41.7492 143.693 42.4052 143.309 42.9652C142.925 43.5252 142.357 43.9892 141.605 44.3572C140.853 44.7252 139.917 44.9972 138.797 45.1732C137.693 45.3492 136.397 45.4372 134.909 45.4372L135.077 44.6692C136.453 44.6372 137.613 44.5412 138.557 44.3812C139.517 44.2212 140.285 43.9892 140.861 43.6852C141.453 43.3812 141.885 43.0132 142.157 42.5812C142.429 42.1332 142.565 41.6052 142.565 40.9972C142.565 40.5812 142.477 40.2292 142.301 39.9412C142.125 39.6372 141.869 39.4052 141.533 39.2452C141.213 39.0692 140.805 38.9812 140.309 38.9812C139.637 38.9812 139.013 39.1492 138.437 39.4852C137.861 39.8212 137.349 40.2932 136.901 40.9012C136.469 41.4932 136.133 42.1892 135.893 42.9892C135.653 43.7732 135.533 44.6292 135.533 45.5572C135.533 46.5012 135.677 47.2932 135.965 47.9332C136.253 48.5732 136.653 49.0532 137.165 49.3732C137.693 49.6932 138.301 49.8532 138.989 49.8532C139.613 49.8532 140.157 49.7492 140.621 49.5412C141.085 49.3332 141.493 49.0452 141.845 48.6772C142.197 48.2932 142.509 47.8532 142.781 47.3572L143.549 47.9092C143.261 48.4692 142.893 48.9732 142.445 49.4212C141.997 49.8532 141.477 50.1892 140.885 50.4292C140.309 50.6692 139.669 50.7892 138.965 50.7892ZM150.597 49.8532C151.237 49.8532 151.821 49.7252 152.349 49.4692C152.893 49.2132 153.373 48.8692 153.789 48.4372C154.221 47.9892 154.581 47.4692 154.869 46.8772C155.173 46.2692 155.397 45.6212 155.541 44.9332C155.701 44.2292 155.781 43.5092 155.781 42.7732C155.781 42.0372 155.693 41.3892 155.517 40.8292C155.357 40.2532 155.101 39.8052 154.749 39.4852C154.397 39.1492 153.925 38.9812 153.333 38.9812C152.661 38.9812 152.029 39.1892 151.437 39.6052C150.845 40.0212 150.269 40.6052 149.709 41.3572C149.165 42.0932 148.613 42.9572 148.053 43.9492L147.741 43.2292C148.301 42.1412 148.869 41.2212 149.445 40.4692C150.021 39.7012 150.637 39.1092 151.293 38.6932C151.965 38.2772 152.693 38.0692 153.477 38.0692C154.325 38.0692 155.021 38.2692 155.565 38.6692C156.125 39.0692 156.541 39.6292 156.813 40.3492C157.085 41.0532 157.221 41.8772 157.221 42.8212C157.221 43.6692 157.117 44.4852 156.909 45.2692C156.701 46.0532 156.405 46.7812 156.021 47.4532C155.637 48.1092 155.173 48.6932 154.629 49.2052C154.085 49.7012 153.469 50.0852 152.781 50.3572C152.109 50.6292 151.373 50.7652 150.573 50.7652C149.885 50.7652 149.253 50.6772 148.677 50.5012C148.101 50.3252 147.589 50.1092 147.141 49.8532C146.709 49.5812 146.357 49.3012 146.085 49.0132L148.581 34.7332C148.629 34.4932 148.597 34.3172 148.485 34.2052C148.373 34.0772 148.189 33.9732 147.933 33.8932C147.693 33.8132 147.381 33.7332 146.997 33.6532L146.733 33.6052L146.877 32.8612H150.261L147.429 49.1332C147.301 49.0532 147.197 48.9652 147.117 48.8692C147.037 48.7732 146.973 48.6692 146.925 48.5572C146.893 48.4292 146.877 48.3092 146.877 48.1972C146.877 48.0692 146.893 47.9332 146.925 47.7892C147.101 48.1732 147.365 48.5252 147.717 48.8452C148.085 49.1492 148.517 49.3972 149.013 49.5892C149.509 49.7652 150.037 49.8532 150.597 49.8532Z" fill="black"/>
</svg>
