<svg width="170" height="59" viewBox="0 0 170 59" fill="none" xmlns="http://www.w3.org/2000/svg">
<path d="M157.209 43.2044L167.733 22.0535L142.775 23.2416" stroke="black" stroke-width="2.7411" stroke-miterlimit="10" stroke-linecap="round" stroke-linejoin="round"/>
<path d="M166.777 22.072C155.359 30.7034 124.579 49.9907 102.113 39.1216" stroke="black" stroke-width="2.7411" stroke-miterlimit="10" stroke-linecap="round" stroke-linejoin="round"/>
<path d="M8.40591 13.5282H5.30991L3.98991 21.0882H7.78191C8.66191 21.0882 9.40591 20.9842 10.0139 20.7762C10.6219 20.5682 11.1019 20.2802 11.4539 19.9122C11.8059 19.5442 12.0619 19.1122 12.2219 18.6162C12.3979 18.1202 12.4859 17.5842 12.4859 17.0082C12.4859 16.3682 12.3339 15.7842 12.0299 15.2562C11.7259 14.7282 11.2699 14.3122 10.6619 14.0082C10.0699 13.6882 9.31791 13.5282 8.40591 13.5282ZM9.24591 5.87224H6.67791L5.47791 12.6162H8.52591C9.32591 12.6162 10.0059 12.5202 10.5659 12.3282C11.1419 12.1362 11.6059 11.8642 11.9579 11.5122C12.3099 11.1442 12.5659 10.7282 12.7259 10.2642C12.9019 9.80024 12.9899 9.30424 12.9899 8.77624C12.9899 8.18424 12.8619 7.67224 12.6059 7.24024C12.3499 6.80824 11.9419 6.47224 11.3819 6.23224C10.8379 5.99224 10.1259 5.87224 9.24591 5.87224ZM8.35791 13.2402L10.4459 12.8802L10.3739 13.2642L8.18991 12.7842C9.48591 12.8162 10.5579 13.0322 11.4059 13.4322C12.2699 13.8162 12.9099 14.3282 13.3259 14.9682C13.7579 15.5922 13.9739 16.2802 13.9739 17.0322C13.9739 17.7522 13.8459 18.4162 13.5899 19.0242C13.3339 19.6322 12.9499 20.1602 12.4379 20.6082C11.9419 21.0562 11.2859 21.4002 10.4699 21.6402C9.66991 21.8802 8.70991 22.0002 7.58991 22.0002H0.125914L0.293914 21.1602H0.557914C1.13391 21.1602 1.62191 21.1042 2.02191 20.9922C2.43791 20.8802 2.67791 20.6482 2.74191 20.2962L5.16591 6.66424C5.22991 6.32824 5.07791 6.10424 4.70991 5.99224C4.35791 5.86424 3.87791 5.80024 3.26991 5.80024H3.00591L3.17391 4.96024H9.34191C10.4939 4.96024 11.4459 5.12824 12.1979 5.46424C12.9499 5.80024 13.5099 6.25624 13.8779 6.83224C14.2459 7.40824 14.4299 8.06424 14.4299 8.80024C14.4299 9.60024 14.2219 10.3442 13.8059 11.0322C13.4059 11.7042 12.7579 12.2402 11.8619 12.6402C10.9819 13.0402 9.81391 13.2402 8.35791 13.2402ZM17.2094 22.0002L19.0334 11.6802C19.0814 11.4402 19.0494 11.2562 18.9374 11.1282C18.8254 11.0002 18.6414 10.9042 18.3854 10.8402C18.1454 10.7602 17.8254 10.6802 17.4254 10.6002L17.1614 10.5522L17.3054 9.80824H20.6414L19.9454 13.7922L20.0414 13.5762L18.5534 22.0002H17.2094ZM24.6014 9.68824L24.3614 11.1522C24.2814 11.1362 24.1454 11.1042 23.9534 11.0562C23.7774 11.0082 23.5694 10.9842 23.3294 10.9842C22.9614 10.9842 22.6014 11.0962 22.2494 11.3202C21.9134 11.5442 21.5854 11.8642 21.2654 12.2802C20.9614 12.6802 20.6574 13.1682 20.3534 13.7442C20.0494 14.3042 19.7454 14.9282 19.4414 15.6162L19.1294 15.1362C19.4334 14.4322 19.7454 13.7522 20.0654 13.0962C20.4014 12.4242 20.7534 11.8242 21.1214 11.2962C21.4894 10.7682 21.8894 10.3522 22.3214 10.0482C22.7694 9.72824 23.2574 9.56824 23.7854 9.56824C24.0094 9.56824 24.1854 9.58424 24.3134 9.61624C24.4574 9.64824 24.5534 9.67224 24.6014 9.68824ZM35.2464 12.9042L34.5984 13.8402C34.5184 13.1202 34.3344 12.5202 34.0464 12.0402C33.7744 11.5442 33.4144 11.1602 32.9664 10.8882C32.5184 10.6162 32.0224 10.4802 31.4784 10.4802C30.8864 10.4802 30.3344 10.6242 29.8224 10.9122C29.3104 11.1842 28.8464 11.5602 28.4304 12.0402C28.0304 12.5202 27.6864 13.0722 27.3984 13.6962C27.1264 14.3202 26.9104 14.9842 26.7504 15.6882C26.6064 16.3762 26.5344 17.0642 26.5344 17.7522C26.5344 18.5042 26.6224 19.1522 26.7984 19.6962C26.9744 20.2242 27.2304 20.6322 27.5664 20.9202C27.9024 21.2082 28.3104 21.3522 28.7904 21.3522C29.4464 21.3522 30.0544 21.1442 30.6144 20.7282C31.1744 20.2962 31.7184 19.7042 32.2464 18.9522C32.7744 18.2002 33.3024 17.3282 33.8304 16.3362L34.1184 17.0562C33.5904 18.1282 33.0464 19.0562 32.4864 19.8402C31.9424 20.6082 31.3584 21.2082 30.7344 21.6402C30.1104 22.0562 29.4064 22.2642 28.6224 22.2642C27.8864 22.2642 27.2544 22.0882 26.7264 21.7362C26.1984 21.3682 25.7904 20.8402 25.5024 20.1522C25.2304 19.4642 25.0944 18.6482 25.0944 17.7042C25.0944 16.8882 25.1904 16.0962 25.3824 15.3282C25.5904 14.5442 25.8784 13.8082 26.2464 13.1202C26.6304 12.4162 27.0864 11.8002 27.6144 11.2722C28.1424 10.7442 28.7344 10.3282 29.3904 10.0242C30.0464 9.72024 30.7424 9.56824 31.4784 9.56824C32.1504 9.56824 32.7424 9.70424 33.2544 9.97624C33.7824 10.2322 34.2144 10.6082 34.5504 11.1042C34.9024 11.6002 35.1344 12.2002 35.2464 12.9042ZM36.0864 9.78424L34.5504 18.5202C34.5184 18.7762 34.4784 19.0242 34.4304 19.2642C34.3984 19.4882 34.3664 19.7042 34.3344 19.9122C34.3184 20.1202 34.3104 20.3042 34.3104 20.4642C34.3104 20.7202 34.3824 20.9122 34.5264 21.0402C34.6704 21.1682 34.8704 21.2322 35.1264 21.2322C35.5264 21.2322 35.8784 21.1602 36.1824 21.0162C36.5024 20.8722 36.7184 20.7922 36.8304 20.7762L36.6624 21.6162C36.5504 21.6962 36.3984 21.7842 36.2064 21.8802C36.0144 21.9602 35.7984 22.0242 35.5584 22.0722C35.3344 22.1362 35.1024 22.1682 34.8624 22.1682C34.5104 22.1682 34.1984 22.1122 33.9264 22.0002C33.6544 21.8722 33.4384 21.6802 33.2784 21.4242C33.1184 21.1682 33.0384 20.8482 33.0384 20.4642C33.0384 20.1762 33.0704 19.8082 33.1344 19.3602C33.1984 18.8962 33.2784 18.4482 33.3744 18.0162L33.2784 18.1842L34.3584 12.0402L34.4544 11.8242L35.2704 9.78424H36.0864ZM39.1252 22.0002L40.9492 11.6802C40.9972 11.4402 40.9652 11.2562 40.8532 11.1282C40.7412 11.0002 40.5572 10.9042 40.3012 10.8402C40.0452 10.7602 39.7252 10.6802 39.3412 10.6002L39.0532 10.5522L39.1972 9.80824H42.5332L41.9092 13.3602L41.9572 13.5762L40.4692 22.0002H39.1252ZM48.6052 17.7282C48.5412 18.0962 48.4772 18.4482 48.4132 18.7842C48.3492 19.1202 48.2932 19.4322 48.2452 19.7202C48.2132 19.9922 48.1972 20.2242 48.1972 20.4162C48.1972 20.6882 48.2692 20.8962 48.4132 21.0402C48.5572 21.1682 48.7572 21.2322 49.0132 21.2322C49.2852 21.2322 49.5332 21.2002 49.7572 21.1362C49.9812 21.0562 50.1812 20.9842 50.3572 20.9202C50.5332 20.8402 50.6532 20.7922 50.7172 20.7762L50.5492 21.6162C50.4372 21.6962 50.2852 21.7842 50.0932 21.8802C49.9012 21.9602 49.6852 22.0242 49.4452 22.0722C49.2212 22.1362 48.9892 22.1682 48.7492 22.1682C48.3812 22.1682 48.0532 22.1122 47.7652 22.0002C47.4772 21.8882 47.2532 21.7042 47.0932 21.4482C46.9332 21.1922 46.8532 20.8722 46.8532 20.4882C46.8532 20.2482 46.8692 19.9762 46.9012 19.6722C46.9492 19.3682 47.0052 19.0162 47.0692 18.6162C47.1332 18.2162 47.2132 17.7762 47.3092 17.2962L47.8852 14.3682C47.9652 13.9362 48.0292 13.5522 48.0772 13.2162C48.1412 12.8642 48.1732 12.5042 48.1732 12.1362C48.1732 11.6722 48.0372 11.2962 47.7652 11.0082C47.5092 10.7202 47.0932 10.5762 46.5172 10.5762C45.9252 10.5762 45.3412 10.7682 44.7652 11.1522C44.1892 11.5202 43.6132 12.0482 43.0372 12.7362C42.4772 13.4242 41.9092 14.2402 41.3332 15.1842L41.0212 14.5602C41.6132 13.5522 42.2132 12.6722 42.8212 11.9202C43.4292 11.1682 44.0692 10.5922 44.7412 10.1922C45.4132 9.77624 46.1252 9.56824 46.8772 9.56824C47.7092 9.56824 48.3572 9.80024 48.8212 10.2642C49.3012 10.7122 49.5412 11.3202 49.5412 12.0882C49.5412 12.4242 49.5092 12.7922 49.4452 13.1922C49.3972 13.5762 49.3332 13.9762 49.2532 14.3922L48.6052 17.7282ZM56.354 22.2642C55.522 22.2642 54.826 22.0642 54.266 21.6642C53.722 21.2642 53.306 20.7122 53.018 20.0082C52.746 19.2882 52.61 18.4562 52.61 17.5122C52.61 16.6642 52.714 15.8482 52.922 15.0642C53.13 14.2802 53.426 13.5602 53.81 12.9042C54.194 12.2322 54.658 11.6482 55.202 11.1522C55.762 10.6402 56.378 10.2482 57.05 9.97624C57.738 9.70424 58.482 9.56824 59.282 9.56824C59.954 9.56824 60.57 9.68824 61.13 9.92824C61.69 10.1682 62.162 10.5202 62.546 10.9842C62.946 11.4482 63.234 12.0082 63.41 12.6642L62.666 13.6242C62.57 12.9522 62.362 12.3842 62.042 11.9202C61.722 11.4402 61.322 11.0802 60.842 10.8402C60.378 10.6002 59.85 10.4802 59.258 10.4802C58.618 10.4802 58.026 10.6082 57.482 10.8642C56.938 11.1202 56.45 11.4722 56.018 11.9202C55.602 12.3522 55.242 12.8722 54.938 13.4802C54.65 14.0722 54.426 14.7202 54.266 15.4242C54.122 16.1122 54.05 16.8242 54.05 17.5602C54.05 18.2962 54.13 18.9522 54.29 19.5282C54.466 20.0882 54.738 20.5362 55.106 20.8722C55.474 21.1922 55.938 21.3522 56.498 21.3522C57.01 21.3522 57.49 21.2322 57.938 20.9922C58.402 20.7522 58.85 20.4162 59.282 19.9842C59.714 19.5362 60.138 19.0082 60.554 18.4002C60.97 17.7762 61.378 17.0882 61.778 16.3362L62.09 17.0562C61.546 18.1282 60.978 19.0562 60.386 19.8402C59.81 20.6242 59.194 21.2242 58.538 21.6402C57.882 22.0562 57.154 22.2642 56.354 22.2642ZM62.834 22.1682C62.306 22.1682 61.866 22.0322 61.514 21.7602C61.178 21.4722 61.01 21.0402 61.01 20.4642C61.01 20.2722 61.026 20.0402 61.058 19.7682C61.09 19.4962 61.13 19.2162 61.178 18.9282C61.226 18.6402 61.282 18.3682 61.346 18.1122L61.25 18.1602L63.314 6.23224C63.362 5.99224 63.33 5.81624 63.218 5.70424C63.106 5.57624 62.922 5.47224 62.666 5.39224C62.426 5.31224 62.114 5.23224 61.73 5.15224L61.466 5.10424L61.61 4.36024H64.994L62.522 18.4962C62.49 18.7522 62.45 19.0002 62.402 19.2402C62.37 19.4802 62.338 19.7042 62.306 19.9122C62.29 20.1042 62.282 20.2882 62.282 20.4642C62.282 20.7202 62.354 20.9122 62.498 21.0402C62.642 21.1682 62.842 21.2322 63.098 21.2322C63.498 21.2322 63.85 21.1602 64.154 21.0162C64.474 20.8722 64.69 20.7922 64.802 20.7762L64.634 21.6162C64.522 21.6962 64.37 21.7842 64.178 21.8802C63.986 21.9602 63.77 22.0242 63.53 22.0722C63.306 22.1362 63.074 22.1682 62.834 22.1682ZM67.4695 20.4882C67.4695 20.2482 67.4855 19.9762 67.5175 19.6722C67.5655 19.3522 67.6215 19.0002 67.6855 18.6162C67.7655 18.2162 67.8455 17.7842 67.9255 17.3202L68.9095 11.7042C68.9575 11.4482 68.9255 11.2562 68.8135 11.1282C68.7015 11.0002 68.5175 10.9042 68.2615 10.8402C68.0055 10.7602 67.6855 10.6802 67.3015 10.6002L67.0135 10.5522L67.1815 9.80824H70.5895L69.1975 17.7522C69.1335 18.0882 69.0695 18.4322 69.0055 18.7842C68.9575 19.1202 68.9095 19.4322 68.8615 19.7202C68.8295 19.9922 68.8135 20.2242 68.8135 20.4162C68.8135 20.6882 68.8855 20.8962 69.0295 21.0402C69.1895 21.1682 69.3975 21.2322 69.6535 21.2322C69.9095 21.2322 70.1495 21.2002 70.3735 21.1362C70.5975 21.0562 70.7975 20.9842 70.9735 20.9202C71.1495 20.8402 71.2695 20.7922 71.3335 20.7762L71.1895 21.6162C71.0615 21.6962 70.9015 21.7842 70.7095 21.8802C70.5175 21.9602 70.3095 22.0242 70.0855 22.0722C69.8615 22.1362 69.6215 22.1682 69.3655 22.1682C68.9975 22.1682 68.6695 22.1122 68.3815 22.0002C68.1095 21.8882 67.8855 21.7042 67.7095 21.4482C67.5495 21.1922 67.4695 20.8722 67.4695 20.4882ZM69.2215 5.36824C69.2215 5.00024 69.3255 4.72024 69.5335 4.52824C69.7575 4.33624 70.0295 4.24024 70.3495 4.24024C70.6695 4.24024 70.9335 4.33624 71.1415 4.52824C71.3655 4.72024 71.4775 5.00024 71.4775 5.36824C71.4775 5.70424 71.3655 5.97624 71.1415 6.18424C70.9335 6.37624 70.6695 6.47224 70.3495 6.47224C70.0295 6.47224 69.7575 6.37624 69.5335 6.18424C69.3255 5.97624 69.2215 5.70424 69.2215 5.36824ZM73.8361 22.0002L75.6601 11.6802C75.7081 11.4402 75.6761 11.2562 75.5641 11.1282C75.4521 11.0002 75.2681 10.9042 75.0121 10.8402C74.7561 10.7602 74.4361 10.6802 74.0521 10.6002L73.7641 10.5522L73.9081 9.80824H77.2441L76.6201 13.3602L76.6681 13.5762L75.1801 22.0002H73.8361ZM83.3161 17.7282C83.2521 18.0962 83.1881 18.4482 83.1241 18.7842C83.0601 19.1202 83.0041 19.4322 82.9561 19.7202C82.9241 19.9922 82.9081 20.2242 82.9081 20.4162C82.9081 20.6882 82.9801 20.8962 83.1241 21.0402C83.2681 21.1682 83.4681 21.2322 83.7241 21.2322C83.9961 21.2322 84.2441 21.2002 84.4681 21.1362C84.6921 21.0562 84.8921 20.9842 85.0681 20.9202C85.2441 20.8402 85.3641 20.7922 85.4281 20.7762L85.2601 21.6162C85.1481 21.6962 84.9961 21.7842 84.8041 21.8802C84.6121 21.9602 84.3961 22.0242 84.1561 22.0722C83.9321 22.1362 83.7001 22.1682 83.4601 22.1682C83.0921 22.1682 82.7641 22.1122 82.4761 22.0002C82.1881 21.8882 81.9641 21.7042 81.8041 21.4482C81.6441 21.1922 81.5641 20.8722 81.5641 20.4882C81.5641 20.2482 81.5801 19.9762 81.6121 19.6722C81.6601 19.3682 81.7161 19.0162 81.7801 18.6162C81.8441 18.2162 81.9241 17.7762 82.0201 17.2962L82.5961 14.3682C82.6761 13.9362 82.7401 13.5522 82.7881 13.2162C82.8521 12.8642 82.8841 12.5042 82.8841 12.1362C82.8841 11.6722 82.7481 11.2962 82.4761 11.0082C82.2201 10.7202 81.8041 10.5762 81.2281 10.5762C80.6361 10.5762 80.0521 10.7682 79.4761 11.1522C78.9001 11.5202 78.3241 12.0482 77.7481 12.7362C77.1881 13.4242 76.6201 14.2402 76.0441 15.1842L75.7321 14.5602C76.3241 13.5522 76.9241 12.6722 77.5321 11.9202C78.1401 11.1682 78.7801 10.5922 79.4521 10.1922C80.1241 9.77624 80.8361 9.56824 81.5881 9.56824C82.4201 9.56824 83.0681 9.80024 83.5321 10.2642C84.0121 10.7122 84.2521 11.3202 84.2521 12.0882C84.2521 12.4242 84.2201 12.7922 84.1561 13.1922C84.1081 13.5762 84.0441 13.9762 83.9641 14.3922L83.3161 17.7282ZM95.2169 22.2642L97.0889 11.7042L97.1849 11.8242L97.8569 9.73624H98.7929L96.5609 22.3602C96.3689 23.4482 96.0169 24.3682 95.5049 25.1202C94.9929 25.8882 94.3289 26.4642 93.5129 26.8482C92.7129 27.2482 91.7609 27.4482 90.6569 27.4482C89.9049 27.4482 89.2089 27.3522 88.5689 27.1602C87.9449 26.9842 87.4089 26.7442 86.9609 26.4402C86.5289 26.1522 86.2009 25.8482 85.9769 25.5282L86.3129 23.7282H87.8489L87.4169 26.1042C87.3209 26.0882 87.2329 26.0402 87.1529 25.9602C87.0889 25.8962 87.0329 25.8002 86.9849 25.6722C86.9369 25.5442 86.9049 25.3922 86.8889 25.2162C86.8729 25.0402 86.8809 24.8322 86.9129 24.5922C87.0569 24.9602 87.3049 25.2882 87.6569 25.5762C88.0249 25.8802 88.4649 26.1122 88.9769 26.2722C89.4889 26.4322 90.0569 26.5122 90.6809 26.5122C91.5289 26.5122 92.2569 26.3602 92.8649 26.0562C93.4889 25.7522 93.9929 25.2802 94.3769 24.6402C94.7609 24.0162 95.0409 23.2242 95.2169 22.2642ZM98.0249 12.8802L97.3289 13.8402C97.2489 13.1202 97.0569 12.5122 96.7529 12.0162C96.4489 11.5202 96.0569 11.1442 95.5769 10.8882C95.0969 10.6162 94.5609 10.4802 93.9689 10.4802C93.3289 10.4802 92.7369 10.6082 92.1929 10.8642C91.6489 11.1202 91.1609 11.4722 90.7289 11.9202C90.3129 12.3522 89.9529 12.8642 89.6489 13.4562C89.3609 14.0482 89.1369 14.6882 88.9769 15.3762C88.8329 16.0642 88.7609 16.7762 88.7609 17.5122C88.7609 18.2322 88.8409 18.8722 89.0009 19.4322C89.1769 19.9922 89.4489 20.4402 89.8169 20.7762C90.1849 21.0962 90.6489 21.2562 91.2089 21.2562C91.8809 21.2562 92.5209 21.0482 93.1289 20.6322C93.7369 20.2162 94.3209 19.6402 94.8809 18.9042C95.4569 18.1522 96.0089 17.2802 96.5369 16.2882L96.8489 17.0082C96.3049 18.0802 95.7369 19.0002 95.1449 19.7682C94.5529 20.5362 93.9209 21.1282 93.2489 21.5442C92.5929 21.9602 91.8649 22.1682 91.0649 22.1682C90.2329 22.1682 89.5369 21.9682 88.9769 21.5682C88.4329 21.1682 88.0169 20.6162 87.7289 19.9122C87.4569 19.2082 87.3209 18.3842 87.3209 17.4402C87.3209 16.6082 87.4249 15.8082 87.6329 15.0402C87.8409 14.2562 88.1369 13.5362 88.5209 12.8802C88.9049 12.2082 89.3689 11.6242 89.9129 11.1282C90.4729 10.6322 91.0889 10.2482 91.7609 9.97624C92.4489 9.70424 93.1929 9.56824 93.9929 9.56824C94.5209 9.56824 95.0089 9.64824 95.4569 9.80824C95.9049 9.95224 96.2969 10.1682 96.6329 10.4562C96.9849 10.7442 97.2729 11.0962 97.4969 11.5122C97.7369 11.9122 97.9129 12.3682 98.0249 12.8802Z" fill="black"/>
</svg>
