<svg width="163" height="96" viewBox="0 0 163 96" fill="none" xmlns="http://www.w3.org/2000/svg">
<path d="M11.1791 21.6602L11.0111 22.5002H4.81913L4.98713 21.6602H5.22713C5.81913 21.6602 6.31513 21.6042 6.71513 21.4922C7.11513 21.3802 7.34713 21.1562 7.41113 20.8202L9.83513 7.16424C9.88313 6.92424 9.82713 6.74824 9.66713 6.63624C9.50713 6.50824 9.27513 6.42024 8.97113 6.37224C8.68313 6.32424 8.33913 6.30024 7.93913 6.30024H7.67513L7.84313 5.46024H13.8191C15.1311 5.46024 16.2111 5.65224 17.0591 6.03624C17.9231 6.40424 18.5631 6.91624 18.9791 7.57224C19.4111 8.22824 19.6271 9.00424 19.6271 9.90024C19.6271 10.6202 19.4911 11.3162 19.2191 11.9882C18.9631 12.6602 18.5551 13.2522 17.9951 13.7642C17.4351 14.2762 16.7231 14.6842 15.8591 14.9882C15.0111 15.2762 14.0111 15.4202 12.8591 15.4202H9.73913L8.68313 21.4202C8.68313 21.4682 8.77113 21.5162 8.94713 21.5642C9.13913 21.5962 9.37113 21.6202 9.64313 21.6362C9.93113 21.6522 10.2111 21.6602 10.4831 21.6602H11.1791ZM18.1631 9.85224C18.1631 9.14824 18.0111 8.54024 17.7071 8.02824C17.4191 7.51624 16.9551 7.11624 16.3151 6.82824C15.6751 6.54024 14.8351 6.39624 13.7951 6.39624H11.3471L9.90713 14.5082H12.9551C13.9151 14.5082 14.7311 14.3882 15.4031 14.1482C16.0751 13.9082 16.6111 13.5802 17.0111 13.1642C17.4111 12.7322 17.6991 12.2362 17.8751 11.6762C18.0671 11.1002 18.1631 10.4922 18.1631 9.85224ZM21.4099 22.5002L23.2339 12.1802C23.2819 11.9402 23.2499 11.7562 23.1379 11.6282C23.0259 11.5002 22.8419 11.4042 22.5859 11.3402C22.3459 11.2602 22.0259 11.1802 21.6259 11.1002L21.3619 11.0522L21.5059 10.3082H24.8419L24.1459 14.2922L24.2419 14.0762L22.7539 22.5002H21.4099ZM28.8019 10.1882L28.5619 11.6522C28.4819 11.6362 28.3459 11.6042 28.1539 11.5562C27.9779 11.5082 27.7699 11.4842 27.5299 11.4842C27.1619 11.4842 26.8019 11.5962 26.4499 11.8202C26.1139 12.0442 25.7859 12.3642 25.4659 12.7802C25.1619 13.1802 24.8579 13.6682 24.5539 14.2442C24.2499 14.8042 23.9459 15.4282 23.6419 16.1162L23.3299 15.6362C23.6339 14.9322 23.9459 14.2522 24.2659 13.5962C24.6019 12.9242 24.9539 12.3242 25.3219 11.7962C25.6899 11.2682 26.0899 10.8522 26.5219 10.5482C26.9699 10.2282 27.4579 10.0682 27.9859 10.0682C28.2099 10.0682 28.3859 10.0842 28.5139 10.1162C28.6579 10.1482 28.7539 10.1722 28.8019 10.1882ZM38.8641 18.4922C38.9921 18.1722 39.0961 17.8442 39.1761 17.5082C39.2561 17.1722 39.3121 16.8362 39.3441 16.5002C39.3921 16.1482 39.4161 15.8122 39.4161 15.4922C39.4161 14.5962 39.2721 13.8122 38.9841 13.1402C38.6961 12.4682 38.2881 11.9402 37.7601 11.5562C37.2321 11.1722 36.5921 10.9802 35.8401 10.9802C35.3281 10.9802 34.8481 11.0682 34.4001 11.2442C33.9521 11.4202 33.5521 11.6602 33.2001 11.9642C32.8481 12.2682 32.5361 12.6282 32.2641 13.0442C31.9921 13.4442 31.7681 13.8842 31.5921 14.3642C31.4641 14.6682 31.3521 14.9962 31.2561 15.3482C31.1761 15.6842 31.1121 16.0202 31.0641 16.3562C31.0321 16.6922 31.0161 17.0282 31.0161 17.3642C31.0161 18.2442 31.1601 19.0282 31.4481 19.7162C31.7361 20.3882 32.1441 20.9162 32.6721 21.3002C33.2161 21.6842 33.8561 21.8762 34.5921 21.8762C35.1201 21.8762 35.6001 21.7882 36.0321 21.6122C36.4801 21.4362 36.8801 21.1962 37.2321 20.8922C37.6001 20.5722 37.9121 20.2122 38.1681 19.8122C38.4401 19.3962 38.6721 18.9562 38.8641 18.4922ZM29.5761 17.2442C29.5761 16.4762 29.6721 15.7322 29.8641 15.0122C30.0721 14.2922 30.3601 13.6362 30.7281 13.0442C31.1121 12.4362 31.5601 11.9082 32.0721 11.4602C32.6001 11.0122 33.1761 10.6682 33.8001 10.4282C34.4401 10.1882 35.1201 10.0682 35.8401 10.0682C36.8321 10.0682 37.6961 10.3082 38.4321 10.7882C39.1841 11.2682 39.7761 11.9242 40.2081 12.7562C40.6401 13.5882 40.8561 14.5402 40.8561 15.6122C40.8561 16.3962 40.7521 17.1482 40.5441 17.8682C40.3521 18.5722 40.0641 19.2282 39.6801 19.8362C39.3121 20.4282 38.8721 20.9482 38.3601 21.3962C37.8481 21.8442 37.2721 22.1882 36.6321 22.4282C35.9921 22.6682 35.3121 22.7882 34.5921 22.7882C33.6321 22.7882 32.7681 22.5482 32.0001 22.0682C31.2481 21.5882 30.6561 20.9322 30.2241 20.1002C29.7921 19.2522 29.5761 18.3002 29.5761 17.2442ZM46.5623 22.7642C45.7303 22.7642 45.0343 22.5642 44.4743 22.1642C43.9303 21.7642 43.5143 21.2122 43.2263 20.5082C42.9543 19.7882 42.8183 18.9562 42.8183 18.0122C42.8183 17.1642 42.9223 16.3482 43.1303 15.5642C43.3383 14.7802 43.6343 14.0602 44.0183 13.4042C44.4023 12.7322 44.8663 12.1482 45.4103 11.6522C45.9703 11.1402 46.5863 10.7482 47.2583 10.4762C47.9463 10.2042 48.6903 10.0682 49.4903 10.0682C50.1623 10.0682 50.7783 10.1882 51.3383 10.4282C51.8983 10.6682 52.3703 11.0202 52.7543 11.4842C53.1543 11.9482 53.4423 12.5082 53.6183 13.1642L52.8743 14.1242C52.7783 13.4522 52.5703 12.8842 52.2503 12.4202C51.9303 11.9402 51.5303 11.5802 51.0503 11.3402C50.5863 11.1002 50.0583 10.9802 49.4663 10.9802C48.8263 10.9802 48.2343 11.1082 47.6903 11.3642C47.1463 11.6202 46.6583 11.9722 46.2263 12.4202C45.8103 12.8522 45.4503 13.3722 45.1463 13.9802C44.8583 14.5722 44.6343 15.2202 44.4743 15.9242C44.3303 16.6122 44.2583 17.3242 44.2583 18.0602C44.2583 18.7962 44.3383 19.4522 44.4983 20.0282C44.6743 20.5882 44.9463 21.0362 45.3143 21.3722C45.6823 21.6922 46.1463 21.8522 46.7063 21.8522C47.2183 21.8522 47.6983 21.7322 48.1463 21.4922C48.6103 21.2522 49.0583 20.9162 49.4903 20.4842C49.9223 20.0362 50.3463 19.5082 50.7623 18.9002C51.1783 18.2762 51.5863 17.5882 51.9863 16.8362L52.2983 17.5562C51.7543 18.6282 51.1863 19.5562 50.5943 20.3402C50.0183 21.1242 49.4023 21.7242 48.7463 22.1402C48.0903 22.5562 47.3623 22.7642 46.5623 22.7642ZM53.0423 22.6682C52.5143 22.6682 52.0743 22.5322 51.7223 22.2602C51.3863 21.9722 51.2183 21.5402 51.2183 20.9642C51.2183 20.7722 51.2343 20.5402 51.2663 20.2682C51.2983 19.9962 51.3383 19.7162 51.3863 19.4282C51.4343 19.1402 51.4903 18.8682 51.5543 18.6122L51.4583 18.6602L53.5223 6.73224C53.5703 6.49224 53.5383 6.31624 53.4263 6.20424C53.3143 6.07624 53.1303 5.97224 52.8743 5.89224C52.6343 5.81224 52.3223 5.73224 51.9383 5.65224L51.6743 5.60424L51.8183 4.86024H55.2023L52.7303 18.9962C52.6983 19.2522 52.6583 19.5002 52.6103 19.7402C52.5783 19.9802 52.5463 20.2042 52.5143 20.4122C52.4983 20.6042 52.4903 20.7882 52.4903 20.9642C52.4903 21.2202 52.5623 21.4122 52.7063 21.5402C52.8503 21.6682 53.0503 21.7322 53.3063 21.7322C53.7063 21.7322 54.0583 21.6602 54.3623 21.5162C54.6823 21.3722 54.8983 21.2922 55.0103 21.2762L54.8423 22.1162C54.7303 22.1962 54.5783 22.2842 54.3863 22.3802C54.1943 22.4602 53.9783 22.5242 53.7383 22.5722C53.5143 22.6362 53.2823 22.6682 53.0423 22.6682ZM59.3578 17.8682C59.2778 18.3002 59.2138 18.7002 59.1658 19.0682C59.1178 19.4202 59.0938 19.7482 59.0938 20.0522C59.0938 20.3882 59.1498 20.6842 59.2618 20.9402C59.3738 21.1802 59.5498 21.3642 59.7898 21.4922C60.0458 21.6202 60.3578 21.6842 60.7258 21.6842C61.3338 21.6842 61.9178 21.4922 62.4778 21.1082C63.0378 20.7242 63.5898 20.1802 64.1338 19.4762C64.6778 18.7722 65.2298 17.9402 65.7898 16.9802L66.1018 17.6042C65.5418 18.6282 64.9658 19.5242 64.3738 20.2922C63.7818 21.0442 63.1498 21.6362 62.4778 22.0682C61.8218 22.4842 61.1178 22.6922 60.3658 22.6922C59.5498 22.6922 58.9018 22.4682 58.4218 22.0202C57.9578 21.5562 57.7258 20.9162 57.7258 20.1002C57.7258 19.8122 57.7498 19.4762 57.7978 19.0922C57.8458 18.6922 57.9098 18.2762 57.9898 17.8442L59.0458 12.2042C59.0938 11.9482 59.0618 11.7562 58.9498 11.6282C58.8378 11.5002 58.6538 11.4042 58.3978 11.3402C58.1578 11.2602 57.8378 11.1802 57.4378 11.1002L57.1498 11.0522L57.2938 10.3082H60.7738L59.3578 17.8682ZM66.4858 19.0202C66.4378 19.2762 66.3978 19.5242 66.3658 19.7642C66.3338 19.9882 66.3018 20.2042 66.2698 20.4122C66.2538 20.6202 66.2458 20.8042 66.2458 20.9642C66.2458 21.2202 66.3178 21.4122 66.4618 21.5402C66.6058 21.6682 66.8058 21.7322 67.0618 21.7322C67.4618 21.7322 67.8138 21.6602 68.1178 21.5162C68.4378 21.3722 68.6458 21.2922 68.7418 21.2762L68.5978 22.1162C68.4698 22.1962 68.3098 22.2842 68.1178 22.3802C67.9258 22.4602 67.7178 22.5242 67.4938 22.5722C67.2698 22.6362 67.0378 22.6682 66.7978 22.6682C66.2698 22.6682 65.8298 22.5322 65.4778 22.2602C65.1418 21.9722 64.9738 21.5402 64.9738 20.9642C64.9738 20.7722 64.9898 20.5402 65.0218 20.2682C65.0538 19.9962 65.0938 19.7162 65.1418 19.4282C65.1898 19.1402 65.2378 18.8682 65.2858 18.6122H65.2138L66.6778 10.3082H68.0218L66.4858 19.0202ZM75.5413 21.8522C76.2453 21.8522 76.8453 21.7162 77.3413 21.4442C77.8373 21.1722 78.2533 20.8282 78.5893 20.4122C78.9413 19.9802 79.2293 19.5402 79.4533 19.0922L80.2213 19.6442C79.9013 20.3002 79.5093 20.8682 79.0453 21.3482C78.5973 21.8122 78.0773 22.1722 77.4853 22.4282C76.8933 22.6682 76.2293 22.7882 75.4933 22.7882C74.7573 22.7882 74.0773 22.6602 73.4533 22.4042C72.8293 22.1482 72.2853 21.7802 71.8213 21.3002C71.3573 20.8202 70.9973 20.2442 70.7413 19.5722C70.4853 18.8842 70.3573 18.1162 70.3573 17.2682C70.3573 16.2922 70.5173 15.3722 70.8373 14.5082C71.1573 13.6282 71.6133 12.8602 72.2053 12.2042C72.8133 11.5322 73.5173 11.0122 74.3173 10.6442C75.1333 10.2602 76.0293 10.0682 77.0053 10.0682C77.7573 10.0682 78.3973 10.1562 78.9253 10.3322C79.4533 10.5082 79.8853 10.7082 80.2213 10.9322C80.5573 11.1562 80.7893 11.3562 80.9173 11.5322L80.5093 13.7642H79.0693L79.4533 11.5802C79.6613 11.6442 79.8133 11.7242 79.9093 11.8202C80.0213 11.9002 80.0933 11.9882 80.1253 12.0842C80.1733 12.1802 80.1893 12.2842 80.1733 12.3962C80.1733 12.4922 80.1493 12.5882 80.1013 12.6842C79.9733 12.3642 79.7653 12.0762 79.4773 11.8202C79.2053 11.5642 78.8613 11.3642 78.4453 11.2202C78.0293 11.0602 77.5413 10.9802 76.9813 10.9802C76.3573 10.9802 75.7733 11.0922 75.2293 11.3162C74.7013 11.5402 74.2213 11.8522 73.7893 12.2522C73.3733 12.6522 73.0133 13.1242 72.7093 13.6682C72.4213 14.1962 72.1973 14.7802 72.0373 15.4202C71.8773 16.0442 71.7973 16.7002 71.7973 17.3882C71.7973 18.2842 71.9413 19.0762 72.2293 19.7642C72.5333 20.4362 72.9653 20.9562 73.5253 21.3242C74.0853 21.6762 74.7573 21.8522 75.5413 21.8522ZM86.0031 22.7642C85.5071 22.7642 85.0671 22.6842 84.6831 22.5242C84.2991 22.3642 83.9951 22.1082 83.7711 21.7562C83.5631 21.3882 83.4591 20.9162 83.4591 20.3402C83.4591 20.0362 83.4751 19.7082 83.5071 19.3562C83.5551 19.0042 83.6111 18.6282 83.6751 18.2282L84.9711 10.6202L85.5231 10.3082H89.8671L89.6991 11.1962H82.6671L82.7871 10.4282H82.8831C83.3471 10.4282 83.7551 10.3962 84.1071 10.3322C84.4591 10.2682 84.7471 10.1482 84.9711 9.97224C85.1951 9.78024 85.3311 9.52424 85.3791 9.20424L85.7631 6.94824H86.9871L85.0191 18.2762C84.9711 18.5482 84.9311 18.8042 84.8991 19.0442C84.8671 19.2842 84.8351 19.5162 84.8031 19.7402C84.7871 19.9482 84.7791 20.1482 84.7791 20.3402C84.7791 20.8362 84.8991 21.2042 85.1391 21.4442C85.3791 21.6682 85.7471 21.7802 86.2431 21.7802C86.5791 21.7802 86.8911 21.7482 87.1791 21.6842C87.4671 21.6202 87.7071 21.5482 87.8991 21.4682C88.1071 21.3882 88.2431 21.3482 88.3071 21.3482L88.1391 22.2842C87.9151 22.3802 87.6191 22.4842 87.2511 22.5962C86.8991 22.7082 86.4831 22.7642 86.0031 22.7642ZM12.9168 33.4602H18.1008C19.5408 33.4602 20.8048 33.6442 21.8928 34.0122C22.9968 34.3642 23.9168 34.8682 24.6528 35.5242C25.3888 36.1802 25.9408 36.9642 26.3088 37.8762C26.6928 38.7882 26.8848 39.7962 26.8848 40.9002C26.8848 41.9402 26.7568 42.9402 26.5008 43.9002C26.2448 44.8442 25.8528 45.7162 25.3248 46.5162C24.7968 47.3162 24.1248 48.0202 23.3088 48.6282C22.4928 49.2202 21.5248 49.6842 20.4048 50.0202C19.2848 50.3402 18.0128 50.5002 16.5888 50.5002H9.89278L10.0608 49.6602H10.3488C10.9408 49.6602 11.4368 49.6042 11.8368 49.4922C12.2368 49.3802 12.4688 49.1482 12.5328 48.7962L14.9328 35.1642C14.9968 34.8442 14.8448 34.6202 14.4768 34.4922C14.1088 34.3642 13.6288 34.3002 13.0368 34.3002H12.7728L12.9168 33.4602ZM18.0528 34.3962H16.4448L13.7808 49.5642H16.5408C17.6128 49.5642 18.5728 49.4602 19.4208 49.2522C20.2848 49.0442 21.0448 48.7562 21.7008 48.3882C22.3568 48.0042 22.9168 47.5482 23.3808 47.0202C23.8608 46.4922 24.2448 45.9082 24.5328 45.2682C24.8368 44.6122 25.0608 43.9162 25.2048 43.1802C25.3488 42.4442 25.4208 41.6842 25.4208 40.9002C25.4208 39.5722 25.1568 38.4202 24.6288 37.4442C24.1008 36.4682 23.2928 35.7162 22.2048 35.1882C21.1168 34.6602 19.7328 34.3962 18.0528 34.3962ZM33.9436 50.7882C33.0156 50.7882 32.1836 50.5882 31.4476 50.1882C30.7276 49.7722 30.1516 49.1722 29.7196 48.3882C29.3036 47.5882 29.0956 46.6122 29.0956 45.4602C29.0956 44.5482 29.2396 43.6522 29.5276 42.7722C29.8156 41.8922 30.2316 41.1002 30.7756 40.3962C31.3196 39.6762 31.9756 39.1082 32.7436 38.6922C33.5276 38.2762 34.3916 38.0682 35.3356 38.0682C36.0876 38.0682 36.7276 38.1962 37.2556 38.4522C37.7836 38.6922 38.1836 39.0362 38.4556 39.4842C38.7276 39.9322 38.8636 40.4362 38.8636 40.9962C38.8636 41.7482 38.6716 42.4042 38.2876 42.9642C37.9036 43.5242 37.3356 43.9882 36.5836 44.3562C35.8316 44.7242 34.8956 44.9962 33.7756 45.1722C32.6716 45.3482 31.3756 45.4362 29.8876 45.4362L30.0556 44.6682C31.4316 44.6362 32.5916 44.5402 33.5356 44.3802C34.4956 44.2202 35.2636 43.9882 35.8396 43.6842C36.4316 43.3802 36.8636 43.0122 37.1356 42.5802C37.4076 42.1322 37.5436 41.6042 37.5436 40.9962C37.5436 40.5802 37.4556 40.2282 37.2796 39.9402C37.1036 39.6362 36.8476 39.4042 36.5116 39.2442C36.1916 39.0682 35.7836 38.9802 35.2876 38.9802C34.6156 38.9802 33.9916 39.1482 33.4156 39.4842C32.8396 39.8202 32.3276 40.2922 31.8796 40.9002C31.4476 41.4922 31.1116 42.1882 30.8716 42.9882C30.6316 43.7722 30.5116 44.6282 30.5116 45.5562C30.5116 46.5002 30.6556 47.2922 30.9436 47.9322C31.2316 48.5722 31.6316 49.0522 32.1436 49.3722C32.6716 49.6922 33.2796 49.8522 33.9676 49.8522C34.5916 49.8522 35.1356 49.7482 35.5996 49.5402C36.0636 49.3322 36.4716 49.0442 36.8236 48.6762C37.1756 48.2922 37.4876 47.8522 37.7596 47.3562L38.5276 47.9082C38.2396 48.4682 37.8716 48.9722 37.4236 49.4202C36.9756 49.8522 36.4556 50.1882 35.8636 50.4282C35.2876 50.6682 34.6476 50.7882 33.9436 50.7882ZM44.6343 50.7642C43.8823 50.7642 43.2023 50.6762 42.5943 50.5002C42.0023 50.3402 41.4823 50.1322 41.0343 49.8762C40.6023 49.6202 40.2423 49.3482 39.9543 49.0602L40.3143 47.0202H41.7783L41.3223 49.6362C41.1623 49.5082 41.0343 49.3642 40.9383 49.2042C40.8583 49.0282 40.8103 48.8522 40.7943 48.6762C40.7783 48.5002 40.7943 48.3482 40.8423 48.2202C41.1303 48.5722 41.4663 48.8682 41.8503 49.1082C42.2343 49.3482 42.6583 49.5322 43.1223 49.6602C43.6023 49.7882 44.1303 49.8522 44.7063 49.8522C45.3463 49.8522 45.8983 49.7562 46.3623 49.5642C46.8263 49.3722 47.1783 49.0922 47.4183 48.7242C47.6743 48.3402 47.8023 47.8842 47.8023 47.3562C47.8023 47.0202 47.7143 46.7242 47.5383 46.4682C47.3783 46.1962 47.1543 45.9642 46.8663 45.7722C46.5783 45.5802 46.2503 45.3962 45.8823 45.2202C45.5303 45.0442 45.1703 44.8682 44.8023 44.6922C44.2903 44.4522 43.8023 44.1962 43.3383 43.9242C42.8903 43.6522 42.5223 43.3162 42.2343 42.9162C41.9623 42.5162 41.8263 41.9962 41.8263 41.3562C41.8263 40.6682 42.0023 40.0762 42.3543 39.5802C42.7223 39.0842 43.2183 38.7082 43.8423 38.4522C44.4823 38.1962 45.2103 38.0682 46.0263 38.0682C46.7143 38.0682 47.3063 38.1402 47.8023 38.2842C48.2983 38.4122 48.7063 38.5722 49.0263 38.7642C49.3463 38.9562 49.5783 39.1402 49.7223 39.3162L49.3623 41.2602H47.9223L48.2823 39.2922C48.3783 39.3402 48.4743 39.4282 48.5703 39.5562C48.6823 39.6682 48.7623 39.7962 48.8103 39.9402C48.8743 40.0682 48.8743 40.2122 48.8103 40.3722C48.6983 40.0842 48.5063 39.8362 48.2343 39.6282C47.9783 39.4202 47.6583 39.2602 47.2743 39.1482C46.9063 39.0362 46.4823 38.9802 46.0023 38.9802C45.0743 38.9802 44.3623 39.1802 43.8663 39.5802C43.3703 39.9802 43.1223 40.5242 43.1223 41.2122C43.1223 41.6762 43.2423 42.0522 43.4823 42.3402C43.7223 42.6282 44.0423 42.8762 44.4423 43.0842C44.8423 43.2922 45.2983 43.5242 45.8103 43.7802C46.3383 44.0202 46.8503 44.2842 47.3463 44.5722C47.8583 44.8442 48.2823 45.1882 48.6183 45.6042C48.9543 46.0202 49.1223 46.5722 49.1223 47.2602C49.1223 47.9642 48.9383 48.5802 48.5703 49.1082C48.2023 49.6362 47.6823 50.0442 47.0103 50.3322C46.3543 50.6202 45.5623 50.7642 44.6343 50.7642ZM52.463 48.9882C52.463 48.7482 52.479 48.4762 52.511 48.1722C52.559 47.8522 52.615 47.5002 52.679 47.1162C52.759 46.7162 52.839 46.2842 52.919 45.8202L53.903 40.2042C53.951 39.9482 53.919 39.7562 53.807 39.6282C53.695 39.5002 53.511 39.4042 53.255 39.3402C52.999 39.2602 52.679 39.1802 52.295 39.1002L52.007 39.0522L52.175 38.3082H55.583L54.191 46.2522C54.127 46.5882 54.063 46.9322 53.999 47.2842C53.951 47.6202 53.903 47.9322 53.855 48.2202C53.823 48.4922 53.807 48.7242 53.807 48.9162C53.807 49.1882 53.879 49.3962 54.023 49.5402C54.183 49.6682 54.391 49.7322 54.647 49.7322C54.903 49.7322 55.143 49.7002 55.367 49.6362C55.591 49.5562 55.791 49.4842 55.967 49.4202C56.143 49.3402 56.263 49.2922 56.327 49.2762L56.183 50.1162C56.055 50.1962 55.895 50.2842 55.703 50.3802C55.511 50.4602 55.303 50.5242 55.079 50.5722C54.855 50.6362 54.615 50.6682 54.359 50.6682C53.991 50.6682 53.663 50.6122 53.375 50.5002C53.103 50.3882 52.879 50.2042 52.703 49.9482C52.543 49.6922 52.463 49.3722 52.463 48.9882ZM54.215 33.8682C54.215 33.5002 54.319 33.2202 54.527 33.0282C54.751 32.8362 55.023 32.7402 55.343 32.7402C55.663 32.7402 55.927 32.8362 56.135 33.0282C56.359 33.2202 56.471 33.5002 56.471 33.8682C56.471 34.2042 56.359 34.4762 56.135 34.6842C55.927 34.8762 55.663 34.9722 55.343 34.9722C55.023 34.9722 54.751 34.8762 54.527 34.6842C54.319 34.4762 54.215 34.2042 54.215 33.8682ZM66.0775 50.7642L67.9495 40.2042L68.0455 40.3242L68.7175 38.2362H69.6535L67.4215 50.8602C67.2295 51.9482 66.8775 52.8682 66.3655 53.6202C65.8535 54.3882 65.1895 54.9642 64.3735 55.3482C63.5735 55.7482 62.6215 55.9482 61.5175 55.9482C60.7655 55.9482 60.0695 55.8522 59.4295 55.6602C58.8055 55.4842 58.2695 55.2442 57.8215 54.9402C57.3895 54.6522 57.0615 54.3482 56.8375 54.0282L57.1735 52.2282H58.7095L58.2775 54.6042C58.1815 54.5882 58.0935 54.5402 58.0135 54.4602C57.9495 54.3962 57.8935 54.3002 57.8455 54.1722C57.7975 54.0442 57.7655 53.8922 57.7495 53.7162C57.7335 53.5402 57.7415 53.3322 57.7735 53.0922C57.9175 53.4602 58.1655 53.7882 58.5175 54.0762C58.8855 54.3802 59.3255 54.6122 59.8375 54.7722C60.3495 54.9322 60.9175 55.0122 61.5415 55.0122C62.3895 55.0122 63.1175 54.8602 63.7255 54.5562C64.3495 54.2522 64.8535 53.7802 65.2375 53.1402C65.6215 52.5162 65.9015 51.7242 66.0775 50.7642ZM68.8855 41.3802L68.1895 42.3402C68.1095 41.6202 67.9175 41.0122 67.6135 40.5162C67.3095 40.0202 66.9175 39.6442 66.4375 39.3882C65.9575 39.1162 65.4215 38.9802 64.8295 38.9802C64.1895 38.9802 63.5975 39.1082 63.0535 39.3642C62.5095 39.6202 62.0215 39.9722 61.5895 40.4202C61.1735 40.8522 60.8135 41.3642 60.5095 41.9562C60.2215 42.5482 59.9975 43.1882 59.8375 43.8762C59.6935 44.5642 59.6215 45.2762 59.6215 46.0122C59.6215 46.7322 59.7015 47.3722 59.8615 47.9322C60.0375 48.4922 60.3095 48.9402 60.6775 49.2762C61.0455 49.5962 61.5095 49.7562 62.0695 49.7562C62.7415 49.7562 63.3815 49.5482 63.9895 49.1322C64.5975 48.7162 65.1815 48.1402 65.7415 47.4042C66.3175 46.6522 66.8695 45.7802 67.3975 44.7882L67.7095 45.5082C67.1655 46.5802 66.5975 47.5002 66.0055 48.2682C65.4135 49.0362 64.7815 49.6282 64.1095 50.0442C63.4535 50.4602 62.7255 50.6682 61.9255 50.6682C61.0935 50.6682 60.3975 50.4682 59.8375 50.0682C59.2935 49.6682 58.8775 49.1162 58.5895 48.4122C58.3175 47.7082 58.1815 46.8842 58.1815 45.9402C58.1815 45.1082 58.2855 44.3082 58.4935 43.5402C58.7015 42.7562 58.9975 42.0362 59.3815 41.3802C59.7655 40.7082 60.2295 40.1242 60.7735 39.6282C61.3335 39.1322 61.9495 38.7482 62.6215 38.4762C63.3095 38.2042 64.0535 38.0682 64.8535 38.0682C65.3815 38.0682 65.8695 38.1482 66.3175 38.3082C66.7655 38.4522 67.1575 38.6682 67.4935 38.9562C67.8455 39.2442 68.1335 39.5962 68.3575 40.0122C68.5975 40.4122 68.7735 40.8682 68.8855 41.3802ZM72.142 50.5002L73.966 40.1802C74.014 39.9402 73.982 39.7562 73.87 39.6282C73.758 39.5002 73.574 39.4042 73.318 39.3402C73.062 39.2602 72.742 39.1802 72.358 39.1002L72.07 39.0522L72.214 38.3082H75.55L74.926 41.8602L74.974 42.0762L73.486 50.5002H72.142ZM81.622 46.2282C81.558 46.5962 81.494 46.9482 81.43 47.2842C81.366 47.6202 81.31 47.9322 81.262 48.2202C81.23 48.4922 81.214 48.7242 81.214 48.9162C81.214 49.1882 81.286 49.3962 81.43 49.5402C81.574 49.6682 81.774 49.7322 82.03 49.7322C82.302 49.7322 82.55 49.7002 82.774 49.6362C82.998 49.5562 83.198 49.4842 83.374 49.4202C83.55 49.3402 83.67 49.2922 83.734 49.2762L83.566 50.1162C83.454 50.1962 83.302 50.2842 83.11 50.3802C82.918 50.4602 82.702 50.5242 82.462 50.5722C82.238 50.6362 82.006 50.6682 81.766 50.6682C81.398 50.6682 81.07 50.6122 80.782 50.5002C80.494 50.3882 80.27 50.2042 80.11 49.9482C79.95 49.6922 79.87 49.3722 79.87 48.9882C79.87 48.7482 79.886 48.4762 79.918 48.1722C79.966 47.8682 80.022 47.5162 80.086 47.1162C80.15 46.7162 80.23 46.2762 80.326 45.7962L80.902 42.8682C80.982 42.4362 81.046 42.0522 81.094 41.7162C81.158 41.3642 81.19 41.0042 81.19 40.6362C81.19 40.1722 81.054 39.7962 80.782 39.5082C80.526 39.2202 80.11 39.0762 79.534 39.0762C78.942 39.0762 78.358 39.2682 77.782 39.6522C77.206 40.0202 76.63 40.5482 76.054 41.2362C75.494 41.9242 74.926 42.7402 74.35 43.6842L74.038 43.0602C74.63 42.0522 75.23 41.1722 75.838 40.4202C76.446 39.6682 77.086 39.0922 77.758 38.6922C78.43 38.2762 79.142 38.0682 79.894 38.0682C80.726 38.0682 81.374 38.3002 81.838 38.7642C82.318 39.2122 82.558 39.8202 82.558 40.5882C82.558 40.9242 82.526 41.2922 82.462 41.6922C82.414 42.0762 82.35 42.4762 82.27 42.8922L81.622 46.2282Z" fill="black"/>
<path d="M152.483 69.3867L151.878 93.7402L131.111 77.7888" stroke="black" stroke-width="2.7411" stroke-miterlimit="10" stroke-linecap="round" stroke-linejoin="round"/>
<path d="M151.07 93.1526C145.237 78.9512 127.706 44.066 103.602 39.8992" stroke="black" stroke-width="2.7411" stroke-miterlimit="10" stroke-linecap="round" stroke-linejoin="round"/>
</svg>
