<svg width="55" height="54" viewBox="0 0 55 54" fill="none" xmlns="http://www.w3.org/2000/svg">
<path fill-rule="evenodd" clip-rule="evenodd" d="M10.1098 15.2703C12.2066 11.6949 13.8255 7.79724 15.3669 4.00847C15.6961 3.19167 15.3317 2.2538 14.5386 1.97664C13.7611 1.639 12.8587 2.04403 12.5457 2.80051C11.0549 6.47358 9.4987 10.258 7.49004 13.6631C7.0581 14.3877 7.28846 15.3548 8.00944 15.8065C8.72983 16.2581 9.6773 15.9948 10.1098 15.2703Z" fill="#202020"/>
<path fill-rule="evenodd" clip-rule="evenodd" d="M22.0383 31.0071C29.921 26.4611 37.2134 20.9164 45.2306 16.5357C45.9724 16.1526 46.2629 15.1962 45.8678 14.4439C45.4722 13.6915 44.5512 13.3803 43.7933 13.8236C35.7577 18.1995 28.4476 23.7394 20.5465 28.2805C19.8028 28.7277 19.536 29.6902 19.9471 30.4468C20.3737 31.1429 21.2946 31.4543 22.0383 31.0071Z" fill="#202020"/>
<path fill-rule="evenodd" clip-rule="evenodd" d="M42.8362 49.0567C39.2288 48.284 35.6214 47.511 32.0134 46.7381C31.1982 46.5197 30.3747 47.0752 30.1881 47.9302C30.0021 48.7853 30.5345 49.574 31.3503 49.7926C34.9637 50.5669 38.5763 51.3414 42.1891 52.1155C43.0205 52.2736 43.8398 51.7173 44.0216 50.861C44.1874 50.065 43.667 49.2147 42.8362 49.0567Z" fill="#202020"/>
</svg>
