<svg width="277" height="212" viewBox="0 0 277 212" fill="none" xmlns="http://www.w3.org/2000/svg">
<g clip-path="url(#clip0_212_3845)">
<path d="M50.1274 124.136C50.0375 123.993 42.023 110.031 36.3603 100.631C36.2302 100.31 35.9754 100.05 35.6501 99.9081C35.3249 99.766 34.9552 99.7526 34.62 99.8715C24.0917 101.771 15.0325 103.366 1.39062 105.92C5.61669 115.631 2.12738 108.404 12.7838 130.572C12.9416 130.956 13.0992 131.261 13.6533 131.108C17.6892 130.342 21.7253 129.742 25.7583 128.97C32.4083 127.676 48.623 124.517 50.1274 124.136Z" fill="#312E28"/>
<path d="M104.48 64.955C104.164 64.955 103.687 64.4187 103.611 64.0352C103.119 61.5884 94.341 15.347 94.1165 14.5784C93.7802 13.4378 94.2726 12.7248 95.5403 12.5823C99.9604 12.0846 163.58 5.45282 167.221 5.07924C168.011 4.99939 168.499 5.15196 168.724 5.99751C169.394 8.51562 180.106 52.0892 180.987 55.8378C181.045 56.0618 181.052 56.2956 181.004 56.522C180.956 56.7483 180.857 56.9615 180.712 57.1454C180.568 57.3293 180.382 57.4793 180.169 57.5842C179.957 57.6891 179.722 57.7463 179.484 57.7514C176.318 57.9867 105.588 65.0308 104.48 64.955Z" fill="#312E28"/>
<path d="M51.4727 136.996C51.1221 134.623 50.2394 132.824 52.4232 132.173C54.0986 131.673 54.0839 131.713 54.0839 128.958C53.9251 125.942 54.9097 122.975 56.8525 120.612C58.1267 118.82 59.7541 117.289 61.6411 116.107C63.5283 114.924 65.6381 114.114 67.8496 113.722C71.4565 112.987 72.3671 112.525 82.0114 113.646C85.4005 114.039 94.7811 115.876 99.1042 115.943C104.423 116.025 109.109 114.215 107.487 109.281C105.268 102.489 98.7503 99.6336 91.7427 95.3474C88.2254 93.1954 85.3208 91.2669 87.8657 87.6147C89.0704 86.0038 90.676 84.7135 92.534 83.863C97.6998 81.2425 97.479 81.5663 100.048 81.1828C100.048 81.0299 100.048 80.7235 100.206 80.6478C101.238 79.8822 100.907 78.9656 100.681 78.0445C100.303 75.9848 100.384 73.8703 100.919 71.8433C101.077 71.2845 101.416 70.7899 101.885 70.4302C102.356 70.0712 102.931 69.867 103.53 69.847C106.938 69.5901 181.311 62.0445 184.47 61.6566C185.643 61.4672 186.844 61.5412 187.983 61.873C189.122 62.2048 190.167 62.7855 191.036 63.5702C198.142 69.6229 211.585 79.7325 218.569 85.3134C219.246 85.7341 219.755 86.3648 220.015 87.1015C220.273 87.8389 220.266 88.6392 219.993 89.3714C219.659 90.3165 219.363 93.5682 215.167 94.0412C202.428 95.4789 150.226 100.526 132.649 102.539C123.403 103.597 113.722 97.4512 107.727 90.6724C105.769 88.6006 104.069 86.314 102.662 83.8592C102.505 83.4 101.469 83.468 101.239 83.2459C100.685 82.4031 99.9736 82.7095 99.2622 82.9395C95.4528 83.8277 92.0075 85.8015 89.3704 88.6057C86.4439 92.0546 92.4804 93.6094 100.447 98.7878C104.809 101.623 109.566 106.703 109.466 111.573C109.401 112.657 109.036 113.706 108.409 114.609C107.784 115.512 106.919 116.236 105.906 116.706C97.5409 120.285 82.8796 114.383 72.6765 115.022C66.3406 115.417 61.0816 117.797 57.803 123.292C56.4388 125.48 55.7777 128.011 55.9037 130.564C55.9037 131.176 56.0613 131.636 56.8525 131.789C58.3571 131.943 58.609 133.163 58.9155 134.315C59.334 135.918 59.3148 135.884 60.9784 135.694C84.3366 133.054 74.977 133.721 82.5776 133.014C83.6781 132.996 84.7613 133.281 85.7006 133.836C86.6398 134.392 87.3964 135.194 87.8823 136.151C91.3769 143.539 104.081 167.889 104.418 171.903C104.574 172.784 104.373 173.689 103.858 174.431C103.341 175.172 102.55 175.693 101.648 175.884C98.6671 177.107 95.5655 178.031 92.3911 178.641C92.2172 178.681 61.3983 184.93 56.6301 185.377C55.2037 185.511 50.2217 185.761 48.1646 184.689C43.249 183.201 39.5637 174.74 37.4847 170.145C28.3782 150.021 28.5256 149.47 28.1483 145.418C28.0377 144.48 28.2928 143.536 28.8635 142.771C29.4343 142.006 30.2796 141.475 31.2338 141.283C36.0523 140.104 40.8796 139.112 45.7127 138.067C48.8027 137.396 51.1854 137.276 51.4727 136.996ZM32.4053 151.313C32.2607 151.338 32.1239 151.394 32.005 151.478C31.8863 151.561 31.7889 151.67 31.7203 151.795C31.6516 151.921 31.6136 152.06 31.6089 152.203C31.6042 152.344 31.6333 152.486 31.6937 152.615C34.1588 158.002 44.9067 179.717 45.3812 180.329C45.9706 180.899 100.765 170.409 100.921 170.376C101.088 170.342 101.244 170.271 101.378 170.171C101.512 170.071 101.621 169.942 101.697 169.795C101.773 169.648 101.814 169.487 101.816 169.323C101.819 169.158 101.784 168.995 101.712 168.846C99.1014 163.599 89.5277 143.81 88.7458 142.279C88.6496 142.145 88.5181 142.038 88.3649 141.971C88.2115 141.903 88.0422 141.878 87.8743 141.896C81.7008 142.892 40.6335 149.859 32.4053 151.313ZM104.797 83.7109C106.437 86.6917 108.516 89.4253 110.969 91.8266C118.579 98.8137 127.198 101.295 129.956 101.095C132.487 100.909 208.682 92.9326 214.218 92.2915C215.124 92.2495 215.989 91.9071 216.665 91.3214C217.342 90.7358 217.792 89.9437 217.937 89.0765C218.063 88.6141 218.057 88.1266 217.917 87.6674C217.778 87.2087 217.511 86.7951 217.146 86.4727C207.928 79.0941 198.688 71.5697 189.533 64.1178C189.078 63.6902 188.528 63.3707 187.923 63.1846C187.319 62.9985 186.679 62.9509 186.052 63.0455C180.528 63.834 112.002 70.8966 104.166 71.6975C101.465 71.973 102.168 72.6744 102.82 79.0465C102.891 79.737 103.295 79.965 103.999 79.965C104.76 79.9541 105.505 80.168 106.136 80.5784C106.726 81.1848 107.16 81.9176 107.402 82.7172C107.718 83.33 107.402 83.7153 106.691 83.7153C106.061 83.7898 105.426 83.7886 104.797 83.7109Z" fill="#312E28"/>
<path d="M208.127 30.6549C207.416 28.3577 206.782 26.1377 205.99 23.9945C205.717 20.6106 205.957 17.206 206.702 13.8893C207.881 13.319 209.44 16.5828 211.529 18.7116C213.186 20.3999 213.427 22.5401 214.061 24.5307C214.378 25.5288 214.693 26.4442 215.01 27.4394C215.052 27.4443 215.097 27.4399 215.137 27.4266C215.179 27.4132 215.216 27.3913 215.247 27.3625C215.09 26.3643 214.456 16.4916 214.456 12.8185C214.456 10.537 216.238 8.18009 218.492 9.21959C220.653 10.2177 220.834 12.3094 221.181 14.655C222.843 14.5025 223.051 14.655 223.392 16.2634C223.731 17.9318 223.731 19.6483 223.392 21.3167C223.228 21.947 223.016 22.2065 222.6 22.0055C222.441 20.0092 221.966 15.9568 221.887 15.9568C221.744 16.4854 221.639 17.0228 221.572 17.5653C221.81 21.1632 222.126 24.7612 222.52 28.3592C222.52 28.573 222.736 29.6724 223.392 29.3573C224.405 23.6217 225.754 17.9461 227.43 12.3579C227.828 10.8593 228.933 9.45625 230.516 9.98384C230.938 10.2513 231.269 10.6343 231.467 11.0842C231.665 11.534 231.719 12.0305 231.624 12.5105C231.624 12.6631 231.545 12.74 231.545 12.894C231.94 13.0378 232.278 13.3019 232.506 13.6468C232.735 13.9919 232.841 14.3991 232.81 14.8075C232.85 16.57 232.85 18.2511 232.81 20.0134C232.796 20.2011 232.711 20.3769 232.571 20.5082C232.432 20.6395 232.248 20.7171 232.054 20.7266C231.86 20.736 231.669 20.6766 231.516 20.5595C231.364 20.4425 231.262 20.2756 231.228 20.0905C231.193 19.5237 231.113 18.9604 230.99 18.4051C226.833 38.5186 229.796 28.7584 234.788 18.6347C235.228 17.8873 235.759 17.1936 236.37 16.5686C236.978 15.692 237.668 14.872 238.433 14.1189C238.549 13.9278 238.71 13.7657 238.902 13.6459C239.094 13.526 239.313 13.4516 239.541 13.4288C240.254 13.4288 240.343 13.8879 240.411 14.578C240.6 16.4887 240.887 18.3295 241.124 20.2431C241.255 20.8818 241.032 21.157 236.693 30.4253C236.371 31.1125 236.693 31.4862 237.247 31.8041C237.887 32.1748 238.592 32.5699 239.224 32.875C239.716 33.1198 240.108 33.5172 240.337 34.0033C240.566 34.4895 240.62 35.0362 240.49 35.5556C239.868 39.3969 234.654 67.24 234.082 70.695C232.687 79.1179 219.969 77.5276 211.375 75.7485C207.059 74.8557 207.362 72.3264 206.312 67.9402C205.743 65.5688 199.254 38.8308 198.163 35.0194C197.148 31.5004 204.404 30.4609 208.127 30.6549ZM238.04 36.3969C225.381 39.0005 212.879 39.2301 200.537 35.0194C203.965 51.5982 205.576 56.1126 209.716 71.3797C210.228 73.2744 211.469 73.0323 212.168 73.3758C221.7 74.374 225.407 75.5147 229.652 73.6052C230.247 73.3984 230.774 73.0399 231.178 72.5691C231.582 72.0977 231.847 71.5306 231.946 70.9262C237.757 40.8385 235.977 47.9394 238.031 36.3969H238.04ZM207.737 23.611C208.361 27.3651 209.42 31.0393 210.893 34.5646C210.98 34.7493 211.116 34.9079 211.289 35.0237C212.713 35.2533 214.136 35.4059 215.641 35.5599C215.402 34.6345 211.732 23.2973 211.684 23.1547C210.973 21.3909 207.412 23.2289 207.727 23.611H207.737ZM237.406 21.3909C237.011 21.4679 236.613 21.783 236.22 21.6975C235.902 21.629 235.666 21.1614 235.348 20.7792C233.212 25.6015 230.603 30.19 228.703 35.249C230.127 35.0951 231.314 34.9425 232.501 34.7899C233.076 34.7899 233.148 34.4534 238.118 23.2289C238.38 22.7055 237.838 22.1024 237.397 21.3909H237.406ZM225.934 20.3201C224.827 25.5958 223.872 30.5023 222.769 35.6312C223.878 35.5556 224.589 35.4786 225.381 35.4786C226.692 35.4786 225.946 35.5114 229.336 21.1613C228.141 20.8562 227.033 20.6251 225.925 20.3201H225.934ZM221.187 35.6312C220.687 28.8697 220.344 25.737 220.155 22.6157C220.055 20.9332 219.839 20.6195 218.019 20.7792C217.538 20.8813 217.063 21.0088 216.595 21.1613C217.07 25.9851 217.544 30.8088 217.94 35.6312H221.187ZM219.763 18.9483C219.447 16.5756 219.144 14.0462 218.656 11.5993C218.349 10.0665 216.756 10.8337 216.519 11.2158C216.204 11.639 216.038 12.1488 216.045 12.6702C216.171 17.8119 216.519 18.2967 216.519 19.6371C217.618 19.4003 218.567 19.1651 219.755 18.9412L219.763 18.9483ZM210.031 20.2502C208.528 18.0301 208.528 18.0301 207.499 18.3366C207.025 21.7816 206.708 21.2454 207.737 21.2454C208.574 21.1007 209.358 20.7561 210.022 20.2431L210.031 20.2502ZM236.932 19.4845C238.04 18.8728 238.04 18.8728 239.142 20.4028H239.38C239.301 19.4075 239.222 18.4122 239.142 17.4169C238.728 17.2659 238.305 17.1383 237.876 17.0348C236.369 18.6347 236.369 18.6347 236.923 19.4773L236.932 19.4845Z" fill="#312E28"/>
<path d="M9.46054 210.877C8.69952 210.981 7.92718 210.981 7.16626 210.877C7.02315 210.845 6.89047 210.78 6.78009 210.686C6.66978 210.592 6.58522 210.474 6.5341 210.341C6.45453 210.188 6.77133 209.882 6.92903 209.653C7.20509 209.381 7.53968 209.172 7.909 209.039C8.27831 208.907 8.67324 208.854 9.06564 208.886C22.9403 206.368 248.283 166.538 273.396 161.802C275.722 161.364 277.136 163.545 275.296 163.941C273.662 164.302 9.60782 210.851 9.46054 210.877Z" fill="#312E28"/>
<path d="M48.6231 89.7597C46.4128 91.5979 40.1651 90.6662 37.943 89.3003C36.4192 88.3632 35.1732 87.0593 34.3272 85.5152C33.4812 83.9718 33.0643 82.2422 33.1172 80.4958C32.8888 73.0953 39.3811 70.6398 43.4805 73.9881C43.7973 74.2174 44.1141 74.5244 44.3514 73.9881C44.9809 72.8165 45.9046 71.8171 47.0375 71.0817C48.1704 70.3457 49.4761 69.8973 50.8349 69.7772C58.8067 68.4458 62.8499 67.6454 74.8076 69.8543C78.3733 70.5133 80.2596 73.4518 79.9504 77.2034C79.4472 82.6166 77.2356 87.7485 73.6142 91.9027C72.3245 93.4674 70.4554 94.4848 68.4037 94.7369C64.7655 95.2796 61.0743 95.4075 57.4052 95.1196C52.911 94.7575 50.1246 91.0042 48.6231 89.7597ZM45.4594 76.1327C45.2092 78.8856 45.6995 81.6551 46.8829 84.1703C48.4485 87.2327 50.6905 89.9251 53.4504 92.0574C54.4508 92.939 55.7393 93.4539 57.0915 93.5112C61.4028 93.8348 65.7394 93.6033 69.9874 92.8227C70.4182 92.7002 70.8025 92.4606 71.0959 92.1325C75.3393 87.8962 78.7742 81.4296 78.5326 75.367C78.3958 71.9334 74.6881 70.891 71.1755 70.3906C63.3421 69.2724 46.2228 68.5209 45.4594 76.1327ZM58.5134 70.6957C71.4198 69.4124 79.6921 73.2963 76.3149 74.7537C70.2974 77.3504 60.2537 78.8476 48.7822 75.9785C47.5931 75.6818 45.6112 74.1249 48.2282 72.6862C50.0436 71.6855 56.2973 70.9154 58.5134 70.6957ZM43.6397 76.7442C43.7369 76.2727 43.6526 75.7826 43.4024 75.367C42.8963 74.7659 42.234 74.306 41.4835 74.0343C40.7329 73.7633 39.9214 73.69 39.132 73.8224C38.3426 73.9553 37.6038 74.2887 36.9917 74.789C36.3795 75.2887 35.916 75.9381 35.6487 76.669C35.1427 77.8078 34.89 79.0377 34.9071 80.2774C34.9241 81.5176 35.2107 82.7399 35.7478 83.8659C36.2852 84.9918 37.0611 85.9957 38.0255 86.812C38.9898 87.629 40.121 88.2398 41.3454 88.606C43.4381 89.4114 45.7485 89.5186 47.9114 88.911C47.5165 88.3754 47.12 87.913 46.8033 87.4569C42.1897 89.0453 33.2734 80.7353 39.0511 76.8154C39.6995 76.3131 40.5021 76.0331 41.3328 76.0202C42.1634 76.0075 42.9749 76.2618 43.6397 76.7442ZM46.4084 86.9264C44.7847 84.4202 43.8832 81.5395 43.7973 78.5824C43.6701 78.276 43.4734 78.0011 43.2219 77.7783C42.9702 77.5547 42.6701 77.3897 42.3435 77.2939C42.0169 77.1976 41.6724 77.1745 41.3351 77.2246C40.9978 77.2747 40.6766 77.3974 40.395 77.5842C36.0201 79.9338 41.45 86.9264 46.4084 86.9264ZM57.6426 73.1467C55.4323 72.0747 51.4714 72.4568 50.2056 74.3715C52.7372 73.9194 55.0285 73.5288 57.6426 73.1467Z" fill="#312E28"/>
<path d="M99.4968 68.6291C99.8146 71.8444 98.0841 69.087 97.9945 68.552C97.5002 65.6335 88.1602 18.4851 87.7872 15.9556C87.428 14.3409 87.5927 12.6584 88.2584 11.1376C88.9242 9.61667 90.0578 8.3315 91.5061 7.45734C92.3451 7.0412 93.2574 6.78146 94.1952 6.69167C96.2482 6.35941 162.555 0.367868 165.402 0.260927C174.281 -0.0727306 173.458 1.06799 186.367 59.3652C186.367 60.9736 185.119 60.4333 184.945 59.7474C184.727 58.9004 184.369 58.0691 184.153 57.2222C172.68 12.3354 172.83 6.59468 171.811 4.77813C171.411 3.87874 170.731 3.12244 169.866 2.61459C169.001 2.10674 167.994 1.87263 166.984 1.94489C164.61 2.10174 93.9522 8.36137 92.7715 9.06577C90.0107 10.7013 89.9722 13.0383 89.6071 15.1899C89.6868 15.2669 98.7059 64.189 99.4968 68.6291Z" fill="#312E28"/>
<path d="M43.0069 127.043C41.1944 127.386 34.4604 128.791 32.8808 129.111C30.4185 129.608 24.4434 130.457 14.2082 132.632C13.8085 132.748 13.3887 132.785 12.974 132.739C12.5595 132.694 12.1587 132.567 11.7961 132.367C11.4337 132.167 11.1168 131.898 10.8652 131.576C10.6133 131.253 10.4317 130.885 10.3315 130.493C-0.442972 105.728 -0.0804851 106.466 0.125808 105.07C0.125808 104.597 -0.294144 104.812 28.8447 99.4047C30.9077 99.0247 32.9633 98.6573 35.0159 98.1798C35.9677 97.959 36.4408 98.4865 36.8357 99.1776C46.6494 116.272 42.6326 110.015 49.9692 121.534C50.6028 122.531 51.0906 123.515 51.7094 124.444C52.1147 125.049 51.7875 125.509 51.1568 125.669C50.6087 125.804 45.3041 126.608 43.0069 127.043ZM50.1283 124.134C50.0385 123.992 42.024 110.03 36.3612 100.63C36.2312 100.309 35.9763 100.049 35.6511 99.9072C35.326 99.7641 34.9561 99.7516 34.6209 99.8696C24.0926 101.769 15.0334 103.363 1.39156 105.918C5.61762 115.63 2.12832 108.403 12.7849 130.57C12.9425 130.954 13.1002 131.259 13.6542 131.107C17.6902 130.34 21.7261 129.74 25.7592 128.968C32.4092 127.674 48.6239 124.516 50.1283 124.134Z" fill="#312E28"/>
<path d="M4.79462 61.6578C3.0927 61.9872 2.28079 59.777 4.00334 59.3607C6.21362 59.104 88.3095 52.1457 90.9532 51.9347C92.0597 51.8463 92.4556 52.0103 92.536 52.7759C92.6155 53.5416 92.3764 53.9253 91.5042 53.9253C88.5405 53.931 5.26173 61.6578 4.79462 61.6578Z" fill="#312E28"/>
<path d="M251.323 101.857C246.818 100.669 249.343 101.846 237.715 97.6455C234.649 96.3973 231.773 94.7487 229.168 92.746C228.619 92.3803 228 92.1201 227.348 91.9806C226.868 91.9163 226.414 91.7258 226.038 91.4299C225.662 91.134 225.377 90.7432 225.213 90.3016C225.049 89.859 225.015 89.3825 225.113 88.9226C225.21 88.4627 225.436 88.0375 225.766 87.6932C227.6 85.5821 229.974 83.9725 232.651 83.0232C237.255 81.1452 241.827 81.7996 246.336 83.3295C253.069 85.6109 261.397 87.9836 263.429 94.3544C263.745 95.5256 263.671 96.7621 263.216 97.8895C262.761 99.0161 261.95 99.9754 260.897 100.628C255.29 103.619 253.787 102.506 251.323 101.857ZM231.227 93.0535C236.188 96.0531 241.61 98.274 247.288 99.6356C246.364 98.7443 248.329 99.8726 231.781 92.8988C231.135 92.484 230.84 92.8649 231.227 93.0535ZM236.29 83.1002C233.112 83.8131 228.628 85.7298 226.796 88.306C225.985 89.4467 226.319 90.2309 227.746 90.6038C235.119 92.4509 242.179 95.3128 248.712 99.1001C252.343 100.872 255.211 102.371 259.948 98.5654C262.158 96.7916 262.243 95.2717 260.737 92.8988C259.527 90.9024 257.701 89.3234 255.516 88.3831C251.8 86.8461 248.002 85.4729 244.123 84.171C241.604 83.3449 238.947 82.9814 236.29 83.1002Z" fill="#312E28"/>
<path d="M223.553 120.767C223.71 117.856 225.996 116.723 228.616 118.163C228.763 118.247 248.979 129.03 264.773 137.841C266.173 139.326 267.418 140.942 268.49 142.664C268.854 143.197 268.676 143.804 267.779 143.804C260.765 143.051 266.988 145.442 225.609 122.987C224.898 122.374 223.87 121.762 223.553 120.767ZM263.744 138.604L233.915 122.222C233.675 122.025 233.395 121.882 233.092 121.802C232.79 121.722 232.473 121.707 232.164 121.758C231.855 121.809 231.561 121.926 231.304 122.098C231.047 122.27 230.831 122.495 230.673 122.758C230.024 123.51 230.043 123.898 230.91 124.365C244.558 131.68 261.57 141.284 261.925 141.284C262.478 140.443 263.033 139.523 263.744 138.604ZM266.276 141.207L265.089 139.371C263.585 139.982 262.953 140.748 263.026 141.972C264.139 141.82 265.404 142.586 266.276 141.207ZM225.607 121.455C226.239 120.536 226.793 119.695 227.427 118.775C227.236 118.673 227.026 118.61 226.809 118.589C226.592 118.568 226.374 118.592 226.167 118.657C225.96 118.72 225.768 118.826 225.605 118.965C225.441 119.104 225.309 119.275 225.216 119.465C224.661 120.383 224.898 121.149 225.609 121.455H225.607ZM228.612 123.292C229.404 122.294 230.115 121.53 230.823 120.69C230.264 120.654 229.711 120.812 229.262 121.133C228.813 121.456 228.496 121.923 228.369 122.45C228.378 122.685 228.609 123.063 228.609 123.292H228.612ZM227.03 122.526C227.743 121.386 228.296 120.53 228.772 119.617C227.585 119.848 226.793 120.46 226.709 121.455C226.752 121.827 226.863 122.189 227.033 122.526H227.03Z" fill="#312E28"/>
<path d="M77.028 90.9087C81.8349 91.7187 80.4663 101.39 63.6576 102.393C57.1342 102.782 42.8278 100.305 45.3019 95.3504C45.5091 94.7639 45.8892 94.248 46.3953 93.8681C46.9014 93.4881 47.5115 93.2601 48.1502 93.2109C48.0298 93.4434 47.8355 93.6302 47.5962 93.7474C47.1939 93.953 46.8597 94.2641 46.632 94.645C46.4043 95.0259 46.2923 95.4613 46.3089 95.9012C46.3255 96.341 46.47 96.7675 46.726 97.1314C46.9818 97.4953 47.3386 97.7814 47.7553 97.9575C54.8783 102.147 69.5177 102.6 76.8707 96.8167C77.273 96.5288 77.6108 96.1649 77.8617 95.7465C78.1133 95.3272 78.2739 94.864 78.333 94.383C78.392 93.902 78.3489 93.4148 78.2061 92.9507C78.0635 92.4858 77.8239 92.0549 77.5027 91.6838C77.2657 91.5211 77.186 91.2154 77.028 90.9087Z" fill="#312E28"/>
<path d="M242.858 39.9959C241.709 39.9959 241.489 39.0549 242.304 38.4645C243.647 37.0643 260.828 36.0148 260.976 36.0148C261.375 35.9844 261.77 36.1085 262.074 36.3596C262.378 36.6108 262.566 36.9687 262.599 37.3544C262.63 37.7402 262.502 38.1223 262.242 38.4165C261.982 38.7107 261.612 38.8931 261.214 38.9236C255.121 39.6204 248.993 39.9783 242.858 39.9959Z" fill="#312E28"/>
<path d="M190.243 42.5992C196.432 41.9161 197.454 41.8135 198.314 42.2926C198.476 42.365 198.613 42.4828 198.705 42.6307C198.798 42.7785 198.843 42.9499 198.835 43.1228C198.825 43.2956 198.764 43.4621 198.657 43.6007C198.55 43.7394 198.403 43.8439 198.234 43.9011C197.131 44.2893 195.992 44.5716 194.832 44.7437C192.066 45.0745 189.215 45.2798 186.366 45.4324C185.181 45.585 183.038 43.3948 190.243 42.5992Z" fill="#312E28"/>
<path d="M214.139 112.65C213.586 111.962 212.96 111.12 211.766 111.578C211.528 111.655 209.131 111.822 208.524 110.812C207.385 108.93 203.029 107.818 201.324 107.676C185.151 105.999 177.847 109.19 169.837 113.57C168.294 114.21 169.413 113.885 164.456 112.192C154.895 108.723 138.733 109.5 123.314 119.007C121.322 120.195 119.622 121.788 118.331 123.677C117.332 125.123 116.576 124.873 114.375 125.815C114.138 125.867 113.918 125.976 113.735 126.13C113.552 126.285 113.411 126.481 113.324 126.7C113.239 126.92 113.209 127.156 113.241 127.39C113.272 127.622 113.363 127.845 113.504 128.036C114.77 130.103 137.714 167.312 139.771 170.757C140.405 171.829 140.879 172.058 142.066 171.829C146.418 170.909 183.081 164.021 191.199 162.335C192.486 161.997 193.823 161.868 195.153 161.952C197.907 162.272 200.682 161.557 202.907 159.955C203.531 159.513 204.271 159.247 205.044 159.189C208.761 158.731 237.244 154.672 240.171 154.291C248.856 153.413 251.85 159.991 214.139 112.65ZM144.041 168.233C143.452 167.662 118.585 127.952 118.486 127.809C119.177 127.139 117.012 124.316 143.645 166.855C144.496 168.225 144.502 167.786 144.041 168.233ZM156.541 164.404C166.309 160.222 176.804 157.858 187.476 157.438L156.541 164.404ZM159.707 161.648C166.589 158.28 173.788 156.137 181.147 156.442C173.823 157.408 166.633 159.153 159.707 161.648ZM146.018 167.467C136.999 153.227 127.979 139.013 118.96 124.823C132.461 113.702 150.485 109.468 165.72 114.718C167.601 115.348 169.195 116.593 170.229 118.24C183.263 137.572 194.827 154.185 196.417 156.749C177.508 151.083 161.052 156.06 146.018 167.467ZM198.315 156.442C189.059 142.967 179.723 129.341 170.309 115.713C179.178 108.609 197.814 107.81 207.097 111.12C207.8 111.29 236.778 147.884 237.399 148.787C230.719 147.402 223.787 147.638 217.224 149.476C210.618 150.942 204.256 153.286 198.315 156.442ZM231.386 149.859C225.934 150.625 220.152 151.313 214.455 152.079C222.051 150.088 229.171 149.245 231.386 149.859ZM206.861 155.524C206.798 155.434 206.769 155.326 206.781 155.217C208.6 154.758 210.5 154.219 212.478 153.916C216.465 153.329 232.197 151.033 236.291 150.854C236.827 150.86 237.36 150.938 237.874 151.083C227.432 152.615 217.146 154.069 206.861 155.524Z" fill="#312E28"/>
<path d="M225.61 121.456C223.99 120.758 225.35 117.807 227.35 118.776C226.796 119.691 226.164 120.537 225.61 121.456Z" fill="#312E28"/>
<path d="M86.3647 170.53C86.2053 171.371 85.7295 171.77 84.9396 171.678C81.21 171.239 86.0859 173.317 70.1453 164.174C65.9886 161.79 48.9414 152.9 48.9414 149.859C49.329 149.484 53.7834 150.144 54.4804 150.547C89.7418 171.157 83.8331 167.468 86.3647 170.53ZM69.8287 162.72C70.2283 163.106 77.584 167.344 82.8827 170.376C83.4322 170.691 83.6738 170.453 83.9905 170.071C84.3078 169.61 83.9905 169.383 83.5955 169.151C82.1074 168.276 73.2297 163.019 70.3829 161.418C70.2256 161.862 70.0404 162.298 69.8287 162.72Z" fill="#312E28"/>
<path d="M186.13 65.9498C187.577 66.165 186.571 65.6133 208.361 83.7875C209.184 84.3181 208.581 84.8594 208.045 84.8594C205.039 85.1646 133.437 93.0571 130.193 93.5104C129.687 93.5909 129.167 93.5328 128.692 93.3432C128.216 93.1537 127.805 92.8408 127.504 92.4375C112.032 74.2822 111.536 74.3291 111.759 73.6804C112.382 72.4742 185.955 65.9222 186.13 65.9498ZM126.318 79.1174C125.367 79.2702 124.654 79.4225 123.864 79.4996C123.152 79.6537 123.784 79.883 124.26 79.883C127.076 79.1264 128.282 80.9196 131.538 84.8594C130.432 85.0123 129.561 85.0894 128.69 85.2416C127.898 85.548 128.612 85.4716 128.69 85.548C129.452 85.6296 130.222 85.6296 130.983 85.548C131.379 85.4587 131.792 85.4837 132.172 85.6199C132.551 85.7561 132.881 85.9976 133.12 86.3143C133.874 87.0426 134.666 87.7324 135.495 88.3799C135.732 88.534 135.969 88.6868 135.732 88.1506C134.941 87.3092 134.229 86.4665 133.358 85.6251C133.341 85.6064 133.33 85.584 133.326 85.5602C133.321 85.5364 133.323 85.5114 133.331 85.4883C133.339 85.4651 133.352 85.444 133.371 85.4279C133.389 85.4112 133.413 85.3996 133.437 85.3945C134.703 85.2416 140.083 84.5531 142.851 84.3232C143.251 84.3752 143.617 84.5659 143.883 84.8594C145.921 86.8313 148.675 89.9216 147.84 88.3047C146.731 87.0028 145.63 85.6251 144.437 84.3232C144.754 84.1696 146.973 83.9712 153.062 83.325C155.832 83.0399 156.719 82.6962 157.571 83.632C158.455 84.6102 159.39 85.5454 160.262 86.541C160.656 87.1524 160.974 86.8474 160.499 86.311C159.708 85.162 158.836 84.0913 157.967 82.8665C161.368 82.4824 164.692 82.1001 168.093 81.7168C169.272 81.7168 170.645 84.2306 172.207 85.239L172.444 85.0091C171.576 83.9371 170.784 82.8703 169.914 81.7938C169.69 81.366 169.634 81.6339 179.17 80.4148C180.279 80.2722 180.989 80.1098 181.781 81.181C183.205 83.632 183.844 84.0142 183.284 82.6365C183.046 82.253 182.493 81.181 182.177 80.569C182.154 80.5298 182.143 80.4848 182.144 80.4392C182.144 80.3943 182.158 80.3499 182.182 80.3108C182.206 80.2722 182.24 80.2401 182.281 80.2183C182.321 80.1958 182.367 80.1849 182.414 80.1855C183.68 80.0326 186.847 79.434 189.692 79.1149C192.305 78.8206 193.102 78.3435 194.043 79.3441C194.761 80.1058 195.548 80.7989 196.339 81.5645C196.892 82.176 197.129 82.0238 196.654 81.3346L194.444 78.7314C194.406 78.7025 194.379 78.6633 194.366 78.6183C194.354 78.5734 194.355 78.5258 194.374 78.4822C194.392 78.4391 194.424 78.4026 194.464 78.3788C194.506 78.3544 194.554 78.3441 194.602 78.3492L197.293 77.66C197.925 77.5065 197.61 77.3536 197.212 77.3536C193.513 77.6786 193.808 78.3261 191.833 76.0518C190.966 75.0536 187.877 72.53 187.403 72.0709C187.657 71.9276 187.922 71.7991 188.194 71.6874C188.748 71.5345 188.748 71.3053 187.956 71.4574C187.509 71.55 187.044 71.5236 186.611 71.3823C186.453 71.3053 185.267 69.9275 184.871 69.467C184.396 69.0848 184.396 69.3148 184.633 69.6211L185.665 71.2281C185.688 71.268 185.699 71.3123 185.698 71.3579C185.698 71.4028 185.684 71.4472 185.66 71.4863C185.637 71.5248 185.602 71.557 185.561 71.5788C185.521 71.6013 185.475 71.6122 185.427 71.6116C182.105 71.9938 178.86 72.3772 175.617 72.6823C174.56 72.6823 174.143 71.9912 173.006 71.0753C172.689 70.5396 172.453 70.7689 172.848 71.2281C173.243 71.7645 173.56 72.3001 173.956 72.8364C174.114 73.1428 174.034 73.2186 173.876 73.2186C172.374 73.525 169.367 73.595 167.54 73.832C162.951 74.4281 162.703 74.5302 160.895 72.453C160.485 72.0073 160.034 71.5974 159.55 71.2281C159.312 70.923 159.154 71.1524 159.312 71.4574C160.026 72.3001 160.895 73.3728 161.686 74.2913C161.702 74.3099 161.714 74.3317 161.717 74.3555C161.722 74.3799 161.721 74.4043 161.713 74.4273C161.704 74.4499 161.691 74.4704 161.672 74.4872C161.654 74.5032 161.631 74.5148 161.606 74.5205C160.42 74.5976 155.517 74.8301 153.379 75.209C151.64 75.5186 151.316 75.439 149.978 73.9091C149.626 73.4152 149.228 72.954 148.79 72.53C148.236 71.8415 148.395 72.3772 148.552 72.7594C149.106 73.525 149.661 74.3676 150.215 75.209C150.232 75.2443 150.24 75.2823 150.242 75.3208C150.242 75.36 150.236 75.3979 150.221 75.4339C150.205 75.4698 150.184 75.5026 150.155 75.5296C150.127 75.5572 150.093 75.5784 150.056 75.5925C146.416 76.1288 142.872 76.6767 139.299 77.1995C137.992 77.3922 138.445 76.9144 136.372 74.904L136.133 75.1339C136.609 75.8995 137.165 76.588 137.796 77.4295C134.711 77.9651 131.703 78.3435 128.697 78.9606C128.254 79.0859 127.78 79.0544 127.36 78.8714C126.938 78.6884 126.599 78.3659 126.403 77.9626C124.425 75.5899 124.108 75.7422 124.425 76.1263C124.952 77.1815 125.586 78.1835 126.318 79.1174Z" fill="#312E28"/>
<path d="M127.268 98.2577C127.12 98.1155 125.859 97.1812 127.425 96.8039C130.667 96.4204 211.686 87.4627 215.166 87.0806C215.848 87.0806 216.325 87.8918 215.246 88.1512C206.907 89.1937 128.943 97.9331 127.268 98.2577Z" fill="#312E28"/>
<path d="M104.007 73.3765C125.655 96.9032 126.165 96.2407 125.211 97.0338C124.657 97.4924 124.266 96.9524 123.945 96.5751C119.809 91.698 102.82 73.9911 102.82 73.6822C102.82 73.4523 102.815 72.0791 104.007 73.3765Z" fill="#312E28"/>
<path d="M138.183 126.356C137.267 126.81 136.383 127.321 136.12 126.662C135.805 125.44 142.48 122.629 143.162 122.374C149.375 120.018 156.043 118.998 162.704 119.388C163.852 119.51 164.991 119.715 166.107 120.002C169.521 121.648 153.217 118.901 138.183 126.356Z" fill="#312E28"/>
<path d="M166.748 125.129C168.645 125.895 166.826 126.127 166.509 126.127C162.664 126.149 158.837 126.638 155.118 127.582C154.88 127.659 152.981 127.429 154.8 126.583C161.86 124.395 163.419 124.387 166.748 125.129Z" fill="#312E28"/>
<path d="M199.106 141.131C198.157 139.676 197.206 138.298 196.257 136.921C196.119 136.832 195.963 136.773 195.799 136.747C195.637 136.721 195.469 136.727 195.309 136.766C194.511 136.979 193.646 137.226 192.776 137.38C193.252 136.308 194.358 136.078 195.309 135.464C194.595 134.317 193.963 133.169 193.245 131.945C190.392 132.942 190.563 132.89 189.763 132.633C190.244 131.936 189.4 132.205 192.691 130.873C191.741 129.263 190.871 127.735 189.921 126.125C189.289 126.355 188.655 126.585 187.944 126.813C187.944 125.743 188.893 125.673 189.369 125.207C188.655 123.752 187.944 122.297 187.232 120.765C187.312 120.69 187.27 119.513 188.497 121.149C190.56 123.895 190.749 124.671 191.346 124.671C193.957 124.135 196.488 123.522 199.1 122.91C196.409 118.163 196.014 116.555 200.049 122.144C200.14 122.403 200.33 122.619 200.58 122.746C200.83 122.875 201.122 122.906 201.394 122.833C203.29 122.655 205.191 122.603 207.249 122.526C206.984 122.064 206.773 121.577 206.616 121.072C204.554 114.871 207.723 120.613 207.723 120.69C209.179 124.916 212.704 121.352 214.206 124.057C212.94 123.982 211.596 123.905 210.012 123.828C210.883 125.13 211.596 126.278 212.387 127.427C212.572 127.784 216.45 127.454 217.609 128.568C216.263 129.256 214.918 128.568 213.415 129.027C214.049 130.025 214.681 131.023 215.394 132.012C215.472 132.166 215.869 132.166 216.184 132.166C217.371 132.242 218.479 132.242 219.665 132.319C219.993 132.387 220.311 132.49 220.614 132.626C220.614 133.182 221.083 132.743 216.341 133.467C217.053 134.616 217.686 135.764 218.478 136.837C218.889 137.236 220.247 136.959 223.461 137.143C223.772 137.143 225.229 137.645 224.807 138.062C223.066 138.214 221.325 138.368 219.502 138.52C219.639 139.095 219.823 139.659 220.055 140.204C222.118 145.717 222.034 145.947 219.023 140.894C218.434 140.132 217.918 138.827 217.126 138.827C215.062 139.134 213.09 139.44 210.955 139.745C211.509 141.047 212.536 143.651 212.852 144.646C213.566 146.482 212.377 144.799 212.3 144.722C210.293 141.972 209.708 140.281 208.817 140.281C206.444 140.74 204.15 141.28 201.775 141.735C202.489 142.96 203.12 144.11 203.754 145.257C204.309 146.1 203.675 145.947 203.359 145.488C202.884 144.951 202.327 144.489 201.855 143.955C201.304 143.341 200.824 142.349 200.194 142.195C199.359 141.927 198.451 142.689 195.764 143.267C196.257 142.126 197.761 141.897 199.106 141.131ZM194.121 130.336C196.652 129.725 199.106 129.034 201.558 128.423C200.925 127.043 200.214 125.743 199.495 124.212C196.884 124.671 194.19 125.21 191.346 125.743C192.381 127.35 193.245 128.881 194.121 130.336ZM197.444 136.078C198.475 137.609 199.422 139.063 200.372 140.443C200.436 140.521 200.523 140.579 200.622 140.606C200.722 140.634 200.828 140.63 200.925 140.596C203.219 139.982 205.593 139.371 207.967 138.682C207.177 137.38 206.385 136.155 205.593 134.93C205.537 134.841 205.453 134.772 205.354 134.731C205.255 134.69 205.145 134.68 205.04 134.7C202.586 135.16 200.134 135.619 197.444 136.078ZM204.566 133.398C203.932 132.326 203.219 131.26 202.586 130.183C202.303 129.634 201.165 130.245 194.754 131.408C195.466 132.633 196.02 133.547 196.653 134.544C196.811 134.699 197.129 134.929 197.365 134.852C199.738 134.394 202.112 133.935 204.566 133.398ZM207.017 134.317C209.04 137.521 209.456 138.452 209.945 138.452C212.008 138.146 214.059 137.762 216.194 137.38C215.483 136.23 214.851 135.16 214.131 134.088C213.908 133.645 213.321 133.687 207.017 134.317ZM200.925 124.057C203.27 128.217 202.565 128.249 205.356 127.963C206.859 127.808 208.362 127.657 209.945 127.503C209.312 126.355 208.697 125.271 208.046 124.288C207.968 124.165 207.865 124.062 207.742 123.982C207.619 123.902 207.48 123.85 207.334 123.828C205.275 123.867 203.219 123.982 200.925 124.057ZM204.011 129.57C204.723 130.795 205.356 131.79 206.073 132.786C206.149 132.879 206.244 132.955 206.354 133.008C206.463 133.061 206.583 133.09 206.706 133.092C208.843 132.863 210.9 132.556 213.114 132.326C210.259 128.19 212.506 128.983 204.011 129.57Z" fill="#312E28"/>
<path d="M185.181 116.862C184.945 116.174 185.498 115.79 186.052 115.637C194.093 112.771 202.325 113.316 203.853 114.794C204.54 115.46 203.782 115.863 203.3 115.714C197.552 113.943 190.896 115.48 185.181 116.862Z" fill="#312E28"/>
<path d="M24.4138 102.775C26.9342 102.798 29.3915 103.542 31.4765 104.912C33.5614 106.283 35.1809 108.219 36.1312 110.479C37.0816 112.738 37.3202 115.218 36.8173 117.608C36.3143 119.998 35.0922 122.191 33.3046 123.91C31.5171 125.63 29.2439 126.799 26.7711 127.272C24.2983 127.744 21.7363 127.499 19.4076 126.566C17.0788 125.632 15.0871 124.053 13.6832 122.027C12.2794 120.002 11.5259 117.621 11.5176 115.181C11.5343 111.883 12.9009 108.725 15.318 106.401C17.735 104.075 21.0057 102.773 24.4138 102.775ZM22.516 113.265C22.516 113.188 19.9049 108.211 18.5596 105.533C17.2939 106.68 16.1857 107.671 14.9199 108.748C17.531 110.354 22.4364 113.265 22.516 113.265ZM14.4454 120.689C15.7112 121.991 16.8193 123.062 18.0055 124.287C19.6676 121.685 22.8328 116.709 22.8328 116.631C22.6117 116.852 17.2364 119.341 14.4454 120.689ZM13.8915 119.691C16.8193 118.237 22.1196 115.556 22.1196 115.481C19.1136 115.326 16.1076 115.251 12.8629 115.097C13.1811 116.709 13.4966 118.087 13.8915 119.691ZM34.4618 120.532C34.9378 119.003 35.4123 117.623 35.8867 116.169C32.6449 116.017 26.6301 115.786 26.5504 115.863C29.1616 117.398 31.6931 118.93 34.4618 120.537V120.532ZM25.6015 104.149C25.4424 107.286 25.2051 113.106 25.2847 113.106C26.8673 110.657 28.4499 108.207 30.1901 105.528C28.6075 105.073 27.1796 104.613 25.6015 104.149ZM23.7818 112.877C23.8613 112.877 24.1766 107.135 24.3358 104.074C22.7532 104.378 21.2503 104.762 19.6676 105.072C21.0911 107.828 22.4364 110.354 23.7818 112.881V112.877ZM33.7501 121.604C31.1391 119.998 26.1555 117.088 26.076 117.165C27.4213 119.614 28.7652 122.064 30.1105 124.668C31.3763 123.683 32.4843 122.685 33.7501 121.609V121.604ZM21.6451 114.485C21.6451 114.408 16.8989 111.349 14.2878 109.738C13.8133 111.193 13.3375 112.571 12.8629 114.026C16.0281 114.183 18.8764 114.336 21.6451 114.489V114.485ZM35.0158 110.809C32.2471 112.111 29.636 113.336 27.1045 114.561C27.1045 114.638 32.8807 114.945 35.9663 115.097C35.6495 113.57 35.3327 112.193 35.0158 110.814V110.809ZM29.0039 125.204C27.5791 122.6 24.8898 117.776 24.8898 117.776C24.8103 120.456 24.6511 123.213 24.573 126.121C26.076 125.823 27.4213 125.512 29.0039 125.208V125.204ZM31.3055 106.298C29.723 108.748 28.22 110.968 26.6375 113.188C26.7154 113.265 31.7005 110.814 34.3911 109.513C33.2757 108.44 32.3267 107.368 31.3055 106.298ZM23.1554 126.049C23.3927 123.217 23.63 117.857 23.5519 117.857C22.0488 120.077 20.624 122.374 18.9633 124.824C20.4589 125.284 21.7276 125.667 23.1481 126.049H23.1554Z" fill="#312E28"/>
<path d="M233.441 85.1655C234.629 85.1655 235.737 85.0897 236.844 85.1655C237.478 85.2426 239.054 87.0031 239.535 87.3852C238.504 87.2331 236.212 86.8508 236.052 86.7738C235.262 86.3146 234.471 85.7789 233.441 85.1655Z" fill="#312E28"/>
<path d="M156.302 82.1046C154.879 82.2568 153.693 82.4193 152.504 82.5631C149.818 82.8901 147.125 83.0995 144.434 83.4045C144.118 83.4045 143.643 83.4045 143.486 83.1753C142.061 81.5682 140.637 79.8841 139.055 78.0421C140.717 77.8121 147.924 76.8616 149.973 76.5102C150.336 76.4164 150.72 76.4319 151.074 76.5552C151.427 76.6785 151.733 76.9033 151.951 77.1994C153.207 78.7435 154.72 80.3434 156.302 82.1046Z" fill="#312E28"/>
<path d="M191.827 77.5871C191.865 77.6154 191.893 77.6553 191.905 77.7002C191.918 77.7452 191.915 77.7927 191.897 77.8357C191.879 77.8788 191.847 77.9153 191.806 77.9397C191.765 77.9635 191.717 77.9738 191.669 77.9693C190.594 78.092 186.145 78.7619 181.542 79.1184C180.24 79.1184 181.162 79.2237 176.005 73.9852C175.966 73.9569 175.939 73.9171 175.926 73.8722C175.913 73.8272 175.916 73.7796 175.933 73.7366C175.952 73.6935 175.983 73.657 176.025 73.6332C176.066 73.6088 176.114 73.5985 176.162 73.603C186.182 72.2658 186.182 71.9735 186.526 72.3011C188.347 74.0623 190.066 75.8446 191.827 77.5871Z" fill="#312E28"/>
<path d="M163.582 74.9834C167.235 74.5414 171.948 74.1169 173.788 73.8356C174.151 73.7688 174.526 73.797 174.873 73.9185C175.222 74.0392 175.529 74.2486 175.765 74.5248C177.143 76.1074 178.614 77.6617 180.118 79.3484C177.863 79.6593 178.195 79.5564 169.436 80.5733C169.104 80.579 168.777 80.5 168.487 80.3433C166.825 78.735 165.246 77.0509 163.582 75.3675V74.9834Z" fill="#312E28"/>
<path d="M167.775 80.8017C165.085 81.1087 162.47 81.2584 159.862 81.7998C158.955 82.0387 157.99 81.9713 157.127 81.6084C156.264 81.2455 155.556 80.609 155.116 79.8035C154.25 78.6873 153.325 77.614 152.346 76.5883C152.316 76.5504 152.297 76.506 152.289 76.4586C152.281 76.4116 152.285 76.3634 152.301 76.3184C152.316 76.2729 152.343 76.2324 152.379 76.199C152.414 76.1663 152.458 76.1425 152.505 76.129C162.151 75.1309 160.769 75.2196 161.841 75.1309C162.316 75.1309 162.554 75.4347 162.872 75.743C164.626 77.3179 166.264 79.0084 167.775 80.8017Z" fill="#312E28"/>
<path d="M128.137 79.6543C130.827 79.2708 132.334 78.9972 135.575 78.5823C137.475 78.3382 138.261 77.6208 139.213 79.1937C140.756 81.743 141.591 81.8419 142.774 83.5581C138.18 84.052 136.064 84.3957 133.28 84.6307C132.072 84.6307 131.954 84.149 128.058 79.9593C128.026 79.9414 128.002 79.9144 127.988 79.8816C127.974 79.8489 127.971 79.8122 127.979 79.7782C127.989 79.7436 128.009 79.7134 128.037 79.6908C128.066 79.6684 128.101 79.6555 128.137 79.6543Z" fill="#312E28"/>
</g>
<defs>
<clipPath id="clip0_212_3845">
<rect width="276.258" height="211" fill="white" transform="translate(0 0.228516)"/>
</clipPath>
</defs>
</svg>
