<svg width="260" height="251" viewBox="0 0 260 251" fill="none" xmlns="http://www.w3.org/2000/svg">
<path d="M169.007 48.2791C171.164 49.4166 173.528 47.6541 172.353 47.8791C171.387 48.0087 170.404 47.8609 169.524 47.4541C169.949 45.8809 170.192 44.2667 170.247 42.6416C169.834 38.7041 168.245 47.8041 169.007 48.2791ZM175.207 50.0541C173.916 51.3041 172.314 52.2166 173.645 52.0791C175.427 51.9041 176.628 50.1916 175.982 49.2916C175.466 49.6166 175.802 49.4666 175.207 50.0541ZM173.709 41.4791C173.322 41.9291 173.709 42.9416 173.799 43.3916C173.827 43.5145 173.902 43.6229 174.009 43.6949C174.116 43.7669 174.247 43.7972 174.375 43.7798C174.505 43.7624 174.622 43.6987 174.704 43.6012C174.787 43.5037 174.828 43.3797 174.82 43.2541C174.678 42.1291 174.393 40.7041 173.709 41.4791ZM166.502 43.7791C166.076 40.9041 165.21 42.1416 165.287 42.6166C165.391 44.5416 166.643 44.7541 166.502 43.7791ZM172.934 39.4916C180.012 40.1541 172.702 37.2041 172.314 39.3916L172.934 39.4916ZM128.294 90.9167C126.822 91.4167 127.118 92.9291 128.94 92.2664C132.664 90.8193 136.576 89.8734 140.565 89.4539C140.565 99.6042 140.035 103.542 140.643 103.817C141.301 103.567 141.843 89.9539 141.805 88.8165C141.689 86.7163 130.606 90.1166 128.294 90.9167ZM115.791 104.966C113.892 108.904 110.534 114.279 114.654 115.641C116.966 116.391 126.757 115.641 124.884 110.554C123.231 106.004 117.987 100.529 115.791 104.966ZM180.787 131.354C179.043 130.867 163.751 128.079 163.001 128.792C161.374 130.379 170.403 129.479 180.503 132.316C180.635 132.353 180.777 132.337 180.897 132.273C181.016 132.208 181.105 132.1 181.143 131.973C181.181 131.845 181.164 131.708 181.097 131.592C181.031 131.476 180.919 131.39 180.787 131.354ZM182.221 124.141C177.794 123.118 173.289 122.44 168.749 122.117C168.612 122.133 168.487 122.202 168.403 122.307C168.318 122.413 168.28 122.546 168.297 122.679C168.314 122.811 168.385 122.932 168.494 123.014C168.603 123.096 168.741 123.133 168.878 123.117C173.277 123.456 177.643 124.121 181.937 125.104C182.069 125.14 182.21 125.125 182.33 125.06C182.45 124.996 182.539 124.888 182.576 124.76C182.614 124.632 182.598 124.496 182.531 124.38C182.465 124.264 182.353 124.178 182.221 124.141ZM81.5872 52.5166C79.9471 52.6916 79.4432 52.2416 79.3012 52.5916C78.9527 54.9041 85.2039 52.4166 81.5872 52.5166ZM76.1622 43.1041C76.1622 39.9916 75.1289 40.9166 75.1289 43.1041C75.1289 43.2367 75.1836 43.3638 75.2802 43.4576C75.3773 43.5514 75.5088 43.6041 75.6456 43.6041C75.7829 43.6041 75.9144 43.5514 76.011 43.4576C76.1081 43.3638 76.1622 43.2367 76.1622 43.1041ZM85.3203 41.9291C85.3424 42.06 85.4174 42.177 85.5292 42.2544C85.6409 42.3317 85.7793 42.3631 85.9143 42.3416C86.0499 42.32 86.1709 42.2473 86.2506 42.1395C86.3309 42.0316 86.3629 41.8975 86.3408 41.7666C85.8631 38.7541 84.9456 39.6541 85.3203 41.9291Z" fill="#312E28"/>
<path d="M229.457 160.928C239.105 153.779 238.783 140.629 238.499 140.204C242.205 136.454 242.309 125.579 241.237 123.341C239.79 120.303 246.249 93.5287 235.709 86.0664C236.638 85.6661 238.408 84.6413 238.537 83.3035C238.77 80.6661 236.199 80.241 234.236 79.116C226.034 74.4538 225.517 64.116 209.449 60.2911C208.855 59.2286 208.726 59.0411 208.247 58.2663C219.872 59.0411 218.374 52.8788 216.372 51.3538C215.112 50.6485 213.761 50.1063 212.355 49.7413C217.251 47.7538 217.109 41.7913 210.805 42.3413C210.056 42.4038 212.484 40.4788 210.508 38.0163C210.063 37.352 209.436 36.8211 208.697 36.4832C207.958 36.1453 207.136 36.0139 206.323 36.1038C206.323 31.9163 204.243 30.2163 201.776 30.2163C205.406 25.0663 200.562 19.3288 193.768 22.5163C195.383 18.8913 191.082 12.3663 181.226 19.9288C180.606 17.3038 172.03 14.5663 171.099 18.4038C170.622 20.3663 167.224 14.8788 161.024 19.3788C159.332 20.6288 158.441 22.6913 160.43 23.3413C154.269 23.7788 151.905 29.3288 156.684 30.5288C157.718 30.7913 154.721 31.4663 155.199 35.1913C155.561 38.0413 158.17 39.6788 160.301 38.1163C161.011 37.6038 160.805 37.4913 160.74 38.0288C160.723 38.2397 160.749 38.4518 160.818 38.6526C160.887 38.8534 160.997 39.0387 161.142 39.1973C161.287 39.356 161.463 39.4848 161.66 39.5762C161.857 39.6674 162.071 39.7193 162.29 39.7288C162.485 40.8236 162.784 41.899 163.181 42.9412C158.505 42.9412 155.728 46.8413 156.968 48.7413C158.402 50.9163 160.921 49.4663 157.769 51.0413C151.66 54.1038 153.197 59.1785 156.943 59.1413C160.688 59.1036 158.234 57.7663 158.816 61.3913C159.177 63.7787 163.181 66.116 166.566 63.116C167.522 64.2286 167.715 64.9414 168.878 65.5163C159.177 71.7663 162.561 74.8035 149.98 87.0788C148.521 88.5163 148.095 87.9786 147.397 88.6413C146.699 89.3035 147.655 93.2787 151.272 92.991C147.307 104.241 151.272 100.779 145.537 101.366C145.408 101.366 147.049 84.9538 146.829 82.6914C146.699 81.5788 146.467 81.6036 133.499 84.4662C133.925 76.0912 133.835 58.7787 133.085 58.6036C132.956 58.6036 123.618 58.6036 123.618 58.366C123.411 57.5664 124.018 54.1288 123.85 53.4788C123.695 53.0538 123.178 53.0663 122.765 52.8038C117.753 49.5788 124.057 51.3413 124.535 50.8663C125.232 50.1163 124.535 42.5538 125.826 42.5538C127.118 43.2163 126.085 49.5412 126.576 50.1412C128.164 51.4912 127.079 44.3537 128.797 44.5537C129.74 44.7287 128.668 49.8788 129.03 50.7288C130.205 52.3538 129.792 48.2288 131.187 46.8913C132.814 46.1288 131.109 58.1413 130.928 58.3913C131.587 58.8913 134.48 43.8163 130.683 46.1913C129.572 46.8913 130.683 45.8913 129.869 44.2288C129.417 43.3663 128.126 43.2288 127.402 44.4538C126.718 40.0788 124.457 41.1413 124.109 44.2163C123.772 50.0163 123.915 49.1413 123.811 50.1788C120.388 48.9288 117.831 51.8663 122.855 53.5538C123.643 53.8163 122.855 56.5912 123.101 58.1785C123.101 58.4414 123.243 58.3536 122.572 58.2911C119.807 58.0163 111.541 80.9037 108.996 84.1914C112.522 89.1914 111.347 89.9285 111.024 89.1036C107.524 82.1036 92.9406 67.4414 76.7301 62.1413C75.4385 61.741 75.7486 62.1413 75.4385 60.5163C74.4953 59.1785 88.2778 66.0411 87.0635 45.9162C92.8888 46.1037 92.0364 37.2788 87.1665 37.0288C90.3828 33.2163 89.3757 30.0788 86.1337 26.7413C84.6995 16.7413 73.5912 16.5163 63.7099 20.1663C61.3721 21.0288 60.959 22.3788 59.7575 24.3788C58.5951 24.5538 58.0655 23.7413 55.818 24.9913C48.9851 28.8038 50.6513 39.5788 56.3088 43.9288C55.2884 46.7913 56.1797 49.9662 60.0287 49.7037C60.0287 61.6785 61.1528 58.9037 55.2626 59.8913C13.2834 66.9285 1.55508 116.178 19.7547 132.529C20.7622 133.441 16.3447 139.553 24.2238 143.891C24.4763 149.444 25.8452 154.896 28.2538 159.941C30.0492 163.691 30.1138 162.879 29.933 163.428C22.2605 187.053 7.63883 229.229 7.40633 230.229C6.56674 233.841 10.2351 234.891 11.9272 232.116C12.6763 230.866 33.3559 176.741 36.0167 169.691C37.2211 170.618 38.4758 171.482 39.7755 172.279C39.2201 181.891 36.0426 223.529 36.6109 225.928C36.717 226.513 37.0216 227.046 37.4763 227.443C37.9309 227.841 38.5097 228.08 39.1208 228.123C39.7319 228.166 40.3403 228.011 40.8497 227.681C41.359 227.351 41.7401 226.867 41.9326 226.303C42.1263 225.678 46.2597 198.166 48.7655 176.641C63.6197 182.504 80.4504 183.216 83.4858 183.254C86.0691 233.141 85.6816 230.141 91.1322 228.616C92.0882 228.341 92.1138 228.616 92.2691 222.704C94.8525 224.854 106.219 233.491 109.668 234.141C110.701 234.329 111.657 232.329 110.301 230.016C102.422 216.604 101.556 222.791 108.802 213.928C109.616 215.841 112.768 223.616 113.969 223.803C117.004 224.129 115.842 230.516 117.702 230.579C121.009 230.704 138.149 229.553 139.492 227.716C140.061 226.954 138.834 225.316 137.258 224.629C120.156 218.591 127.118 229.841 125.813 194.404C125.813 193.504 133.189 185.241 136.702 174.741C138.653 168.904 136.702 166.379 137.671 163.491C139.802 156.678 136.03 158.104 143.793 157.716C145.447 160.816 146.674 158.966 147.578 162.716C148.494 166.731 150.41 170.468 153.158 173.604C153.662 167.881 154.965 162.25 157.033 156.866C158.324 156.754 156.865 155.541 153.92 174.366C154.036 174.491 153.545 208.666 155.083 209.366C156.291 209.741 157.547 209.952 158.816 209.991C158.505 210.229 158.712 218.466 158.57 218.466C158.57 218.779 148.108 222.066 146.945 227.154C146.79 228.266 146.764 228.729 147.966 228.729C151.957 228.516 165.377 225.279 166.255 225.279C166.255 226.666 166.036 226.779 167.392 226.766C168.542 226.766 169.976 226.766 170.35 226.254C170.699 225.416 169.898 212.004 170.105 210.441C170.105 210.316 169.885 210.441 173.037 210.441C173.166 228.279 173.308 226.591 174.599 226.954C180.115 227.866 179.108 229.041 181.058 197.766C186.044 202.141 183.822 202.191 190.099 198.291C190.952 199.329 195.266 204.266 195.266 204.303C193.199 208.204 189.609 215.704 192.761 218.966C193.652 219.704 194.698 218.354 203.572 207.016C207.059 202.541 205.238 206.791 207.318 205.066C211.076 201.954 209.901 203.816 199.568 192.191C205.626 187.954 204.967 189.154 200.174 184.779C174.057 160.866 183.486 177.416 216.566 166.829C217.367 174.879 223.438 224.791 224.664 225.654C225.505 226.241 228.281 225.904 229.147 225.529C230.632 224.879 228.785 206.979 226.072 174.553C236.987 203.404 247.889 231.004 247.889 231.129C249.336 234.091 252.939 233.504 252.745 230.566C252.707 230.616 233.164 172.504 229.457 160.928ZM206.594 204.404C205.987 203.791 205.845 203.329 205.303 203.504C204.282 204.004 194.608 217.254 193.213 218.104C190.345 214.004 196.274 204.704 195.977 204.129C195.796 203.891 199.619 202.879 203.934 198.091C208.868 203.616 208.79 202.654 206.582 204.404H206.594ZM203.404 197.428C201.276 200.021 198.643 202.183 195.654 203.791C191.779 199.641 191.249 199.029 190.487 198.129C201.118 191.616 197.785 191.053 203.391 197.428H203.404ZM238.124 140.966C237.905 150.579 234.172 156.716 229.237 160.254C224.6 145.791 225.84 150.178 226.499 145.441C239.416 142.079 238.137 139.579 238.111 140.966H238.124ZM240.1 121.666C237.401 118.754 233.241 117.916 229.38 117.053C232.595 115.466 236.38 113.491 237.336 111.016C238.628 106.916 236.651 97.0535 235.851 94.6537C232.531 84.5912 230.361 87.7911 234.559 86.5039C243.058 92.0535 240.978 109.091 240.087 121.666H240.1ZM189.583 121.866C182.066 122.704 186.134 124.441 184.416 125.416C183.202 126.091 182.789 127.504 184.752 127.916C186.199 128.229 186.044 127.916 185.372 128.329C183.926 129.166 183.551 131.191 188.963 130.666C188.343 131.816 185.23 137.604 184.378 138.629C184.068 139.004 162.897 137.729 148.922 136.129C149.038 136.004 162.626 119.441 165.92 116.604C166.23 116.466 189.17 119.104 189.299 119.104C189.043 120.026 189.139 121.007 189.57 121.866H189.583ZM185.618 129.729C184.649 128.479 191.159 128.766 189.686 127.404C189.557 127.329 177.132 126.741 190.203 125.341C190.322 125.315 190.427 125.248 190.499 125.153C190.571 125.057 190.605 124.939 190.593 124.821C190.582 124.704 190.527 124.594 190.439 124.513C190.351 124.431 190.234 124.383 190.113 124.379C187.788 124.441 186.341 124.854 185.876 124.379C185.114 122.941 189.493 122.954 190.229 122.691C191.52 122.354 189.183 120.191 190.422 118.941C191.068 118.379 192.941 121.966 193.213 122.204C196.972 124.616 211.838 102.466 220.919 101.641C223.166 101.428 217.044 101.166 214.538 103.504C209.372 89.3536 209.501 89.8536 209.539 89.3035C209.707 87.1289 212.239 86.2038 214.422 86.5535C216.605 86.9037 217.07 88.2787 219.42 88.2911C220.623 88.2973 221.815 88.0692 222.924 87.6205C224.034 87.1711 225.039 86.5112 225.879 85.6785C227.541 86.3491 229.311 86.7342 231.11 86.8164C234.03 92.866 235.05 93.4538 236.161 100.341C236.742 103.928 237.93 110.004 235.321 112.341C229.831 117.266 193.045 132.191 185.605 129.729H185.618ZM192.502 119.441C195.086 119.766 194.698 119.441 194.194 120.529C193.51 121.916 193.988 121.479 192.489 119.441H192.502ZM164.874 53.7538C158.118 51.7288 165.184 44.0538 164.874 46.4913C164.874 46.6163 164.499 46.7287 164.395 46.7912C163.104 47.5037 161.476 53.0413 167.211 53.2663C170.311 53.4038 166.876 54.3663 164.874 53.7538ZM165.184 46.2538C163.246 41.2538 163.168 42.0413 162.742 39.7538C165.326 39.4663 168.116 39.6663 166.436 38.7288C165.519 38.2163 164.615 38.8162 165.028 38.4787C168.903 34.9163 167.522 31.3413 168.297 33.2788C168.669 34.1355 169.259 34.887 170.013 35.4635C170.766 36.04 171.658 36.4228 172.606 36.5762C173.553 36.7297 174.526 36.6487 175.432 36.341C176.338 36.0333 177.15 35.5088 177.79 34.8163C178.875 37.6038 180.089 39.0538 183.512 39.3788C185.799 39.5913 185.437 39.3162 186.302 38.4787C189.622 35.2663 192.761 41.6038 188.73 43.4788C187.258 43.9788 189.363 50.4038 193.303 48.7663C196.248 47.5163 195.447 41.6038 192.166 41.3663C190.952 41.2788 191.572 40.9788 191.766 40.9538C196.028 40.3663 197.837 47.4912 194.065 49.5162C190.603 51.3787 186.457 47.4913 188.007 43.6038C185.23 43.9663 185.243 47.4788 186.716 49.7913C186.897 50.0663 180.916 50.2913 181.472 54.5163C181.846 56.3413 184.055 56.7539 185.953 56.7162C181.911 65.8412 187.064 67.116 191.534 62.7787C191.902 63.9307 192.432 65.0287 193.109 66.0411C195.215 68.6289 172.611 75.0912 173.269 65.0163C174.543 64.3221 175.753 63.5236 176.886 62.6289C177.055 61.3817 177.025 60.1171 176.795 58.8789C176.214 55.6163 170.595 60.2286 165.132 46.2287L165.184 46.2538ZM181.187 89.2162C178.604 87.2911 174.729 72.866 173.98 69.4037C183.835 75.0287 192.722 67.6413 192.218 68.7038C190.707 71.7787 182.711 87.0287 181.135 89.1914L181.187 89.2162ZM182.182 97.7286C177.467 98.241 176.253 92.1036 179.87 90.6036C186.922 88.0788 188.989 96.9662 182.182 97.7286ZM170.867 66.1413C170.867 66.1413 172.029 65.5664 172.817 65.1413C172.688 67.9786 174.07 68.491 170.867 66.116V66.1413ZM148.34 90.991C146.583 88.4161 148.883 89.9538 154.63 83.7162C159.113 78.866 163.801 68.4538 169.497 66.2162C169.82 66.491 171.551 67.8035 173.205 68.9161C174.174 74.9786 177.467 86.4161 179.895 89.366C180.012 89.5039 174.147 91.3288 178.152 97.2663C185.178 102.716 190.939 91.0163 183.06 89.4538C181.213 89.1036 182.234 91.5287 191.094 72.4285C193.678 66.8035 192.322 68.6785 194.491 67.1036C196.364 68.0912 201.57 68.4285 201.57 63.0287C205.961 66.5411 211.477 65.2038 210.03 61.4538C223.205 64.9161 224.794 72.5039 230.826 77.8536C234.701 81.3288 237.827 80.9538 237.517 83.1785C237.517 84.2663 233.771 87.0664 227.959 85.491C225.969 84.9538 225.75 84.5535 225.375 85.0039C224.51 85.9099 223.434 86.6025 222.237 87.0242C221.039 87.4459 219.755 87.585 218.491 87.4285C217.393 87.1537 216.772 86.5163 215.222 85.9786C213.117 85.3913 210.056 85.9786 209.113 88.1036C206.065 76.2286 206.905 74.6537 206.207 73.9786C203.494 76.6537 212.523 100.504 213.75 104.129C211.555 105.379 205.871 110.841 204.076 112.579C203.624 113.016 194.233 110.941 163.039 110.791C165.726 105.604 170.208 102.303 170.441 101.678C170.518 101.266 165.184 96.0788 166.165 90.3536C167.651 81.6036 171.526 76.7787 169.885 78.2162C166.785 82.8913 164.37 88.1289 165.571 93.6537C165.018 94.0388 164.377 94.2905 163.704 94.3885C163.03 94.4859 162.341 94.4273 161.696 94.2162C159.113 93.2787 158.493 89.4786 151.621 92.2162C151.011 92.3783 150.363 92.3474 149.772 92.1267C149.182 91.9065 148.679 91.5084 148.34 90.991ZM152.073 92.9161C154.424 92.5287 156.232 91.6661 157.795 92.6036C159.087 93.3789 161.541 96.9538 165.674 94.7038C166.811 96.3164 166.411 98.7539 169.278 101.553C157.201 113.104 164.538 116.404 144.039 116.116C144.349 113.053 145.059 105.729 145.408 101.791C151.737 101.066 147.643 105.154 152.073 92.9161ZM145.744 83.0287C145.744 88.7539 143.044 116.566 142.385 122.254C136.276 124.229 96.1569 135.141 82.2453 137.254C82.5298 129.166 84.984 105.316 87.231 97.5163C94.1548 94.2162 139.04 83.9786 145.744 83.0287ZM54.0355 124.666C57.9105 122.166 77.3632 118.053 83.3176 116.729C83.3176 117.029 83.0983 118.553 83.0593 118.854C51.8913 125.016 58.1301 126.379 54.0742 124.666H54.0355ZM88.9108 68.5287C81.5483 85.0912 81.1608 80.2038 87.7611 82.1914C88.4453 82.4037 78.2801 103.191 78.2412 103.879C76.6784 133.754 77.2858 97.4786 80.334 67.6289C80.7599 63.5163 79.0551 62.7286 88.9236 68.5287H88.9108ZM80.5406 111.803C80.5406 111.936 80.4859 112.064 80.3893 112.157C80.2921 112.251 80.1606 112.303 80.0239 112.303C79.8866 112.303 79.7557 112.251 79.6585 112.157C79.5613 112.064 79.5072 111.936 79.5072 111.803C79.4944 108.979 80.5406 107.504 80.5406 111.803ZM75.7486 62.2787C81.6513 64.241 80.256 62.5411 79.3391 71.6914C79.3391 71.4285 78.1382 70.741 75.3739 68.0163C76.6138 66.9285 76.0715 63.866 75.7486 62.2787ZM75.9034 74.9786C76.7819 74.7663 76.9111 72.4786 76.9885 70.9037C79.9075 73.5287 79.2879 71.5788 78.642 78.9414C76.9111 74.5535 76.9239 74.8164 76.6912 74.7162C76.3682 75.3412 74.6507 76.116 73.7593 75.4285C73.6691 76.3164 74.1596 86.5535 74.237 89.4414C53.1184 53.5787 66.9909 80.3789 71.0596 73.1289C74.8182 75.4037 73.4882 75.5664 75.9295 74.9786H75.9034ZM87.2054 37.7288C91.0804 37.6538 91.6745 44.7788 87.3736 44.9413C83.0721 45.1038 82.9691 37.8038 87.2054 37.7288ZM83.4986 32.8663C83.8087 33.8538 84.3766 35.8663 84.7903 37.7038C82.7364 39.3663 84.0153 40.7038 82.4909 40.9288C82.2069 40.2288 82.2069 39.8288 81.8194 40.2288C81.8194 41.2663 82.1679 40.9788 80.7215 41.2413C78.2801 41.6663 80.1013 41.4163 78.6159 39.7663C78.0899 39.1264 77.3923 38.6388 76.5998 38.3565C75.8068 38.0742 74.9491 38.0081 74.12 38.1655C73.2909 38.3228 72.5223 38.6976 71.8986 39.2488C71.2743 39.8 70.8193 40.5066 70.5819 41.2913C69.4578 41.2913 65.9837 41.1662 65.4153 41.0787C64.6403 38.8662 63.245 30.9788 63.2322 30.8788C72.9069 36.6788 81.0316 34.8913 83.4986 32.8663ZM78.8486 44.1163C78.0474 46.4413 72.9197 47.2788 71.6281 43.5538C69.5742 37.7288 81.3156 36.8413 78.8224 44.1163H78.8486ZM57.9105 48.7538C56.2313 47.9163 55.8051 42.8788 58.7501 42.5038C60.6617 42.2788 61.6822 44.3288 62.4444 44.6663C64.4075 45.5163 65.6218 44.3288 65.6218 42.2288H70.4266C70.1554 48.7288 80.7599 48.4788 79.6364 42.3413C82.8656 42.2038 81.4057 40.2038 82.9819 46.9663C81.9486 47.4538 80.192 47.6788 80.1141 47.9538C80.476 48.5038 83.9891 48.1913 83.9891 46.8663C83.5888 44.6038 83.292 43.2413 83.0849 42.4913C83.3171 43.1906 83.6964 43.836 84.1991 44.3867C84.7012 44.9374 85.3156 45.3816 86.0045 45.6913C86.0819 46.6538 86.0947 47.3787 86.1203 48.6537C86.5212 63.9285 74.4953 58.1289 74.3406 59.9037C74.3406 60.5287 75.8778 66.1537 74.7926 67.1413C71.5891 66.3913 61.2557 60.0287 60.9328 59.2038C60.92 44.8413 60.8944 50.2288 57.9105 48.7538ZM72.6614 67.5039C71.7136 69.7674 70.586 71.9578 69.2903 74.0535C60.7007 68.491 59.7191 65.2286 56.7738 60.2286C63.7099 59.0788 56.7609 60.3412 72.6614 67.5163V67.5039ZM55.8697 60.6036C79.9983 100.604 77.5307 93.616 77.0659 100.104C73.8885 98.2038 56.7738 87.7787 54.6684 86.1289C55.1722 84.6785 60.2358 80.2038 60.5197 79.3789C60.8037 78.5535 45.1617 63.5039 45.2134 63.491C48.6593 62.2618 52.2011 61.3001 55.8051 60.616L55.8697 60.6036ZM37.2309 116.854C39.3363 117.341 38.8455 117.678 39.2976 116.966C44.8905 108.216 47.4351 91.8164 47.6805 91.616C48.4297 92.5039 46.518 107.316 40.1113 116.616C38.8972 118.379 38.8842 116.616 42.4105 120.629C52.4984 118.241 69.9489 116.479 83.576 115.091C83.576 115.416 83.4724 115.941 83.434 116.341C74.5861 118.053 47.1509 122.341 52.8342 127.691C54.6167 129.154 80.8635 138.941 82.1423 137.691C95.4593 136.041 139.751 124.428 143.005 123.116C143.354 122.891 143.316 123.416 143.961 117.004C151.608 117.254 154.295 118.254 159.087 114.866C160.477 113.893 161.728 112.745 162.807 111.454C175.53 111.604 190.616 112.091 203.301 113.479C190.565 126.091 197.876 119.303 194.517 118.866C188.872 118.116 165.7 116.053 165.842 116.266C165.48 115.779 148.741 134.428 147.759 136.154C146.777 137.879 184.158 140.279 184.959 139.466C185.76 138.654 189.441 131.816 190.126 130.604C196.687 129.779 205.626 128.579 228.165 117.716C247.669 122.441 241.508 131.229 232.04 134.666C228.734 135.916 196.997 144.791 154.23 147.879C76.0325 153.516 29.0805 137.879 31.6122 137.879C32.2451 137.879 32.5292 137.079 33.6272 135.104C39.1555 139.816 53.183 143.966 49.7084 139.616C50.4278 139.719 51.159 139.719 51.8784 139.616C53.2476 139.316 53.338 138.053 52.2401 137.116C51.6847 136.654 51.6072 136.803 52.098 136.766C54.2422 136.616 54.3713 135.004 52.7051 134.091C50.4576 132.841 46.5051 132.979 45.3684 130.979C44.5417 129.529 47.4867 128.066 46.4663 126.479C45.7559 125.379 44.6192 125.829 43.5084 126.553C41.2609 128.066 42.0747 128.191 40.4601 126.754C43.4051 124.766 44.3351 125.741 43.8572 124.329C43.3045 122.767 42.3772 121.355 41.1512 120.208C39.9253 119.06 38.4357 118.211 36.8047 117.729C26.0709 115.604 22.2734 122.729 21.9376 122.729C21.2142 120.841 27.7501 114.704 37.1663 116.829L37.2309 116.854ZM45.1359 132.053C46.673 133.916 53.0022 134.266 52.8859 135.616C52.3434 137.041 45.2005 133.566 45.5234 135.404C45.7301 135.954 46.1434 135.666 48.6751 136.516C53.648 138.204 53.3767 139.954 45.8851 137.504C44.503 137.053 44.3092 137.504 44.5288 137.991C44.7484 138.479 49.3855 139.441 49.1272 140.491C48.8559 141.303 38.0059 138.241 33.8855 134.704C35.3919 131.751 37.5269 129.139 40.1501 127.041C41.1963 128.029 41.6355 128.479 41.8938 128.391C42.1522 128.303 45.8722 125.154 46.0142 127.141C46.0401 128.491 43.0563 129.604 45.0713 132.029L45.1359 132.053ZM24.7792 144.178C36.1588 150.266 36.5592 143.191 30.3205 162.441C27.0011 156.853 25.0812 150.589 24.7147 144.154L24.7792 144.178ZM10.9455 231.766C10.4805 232.641 8.36216 233.303 8.90466 230.516C11.2684 218.691 27.5434 176.766 35.0738 148.191C37.9155 149.053 39.8272 149.566 42.6817 150.279C40.5505 156.016 11.4751 230.979 10.9455 231.766ZM41.403 223.579C40.8217 227.329 37.838 227.541 37.528 223.504C37.1663 218.141 39.0005 204.104 40.2405 172.591C42.7799 174.077 45.431 175.377 48.1713 176.479C47.6676 180.291 43.108 212.616 41.403 223.579ZM90.9775 227.629C86.534 229.279 87.4382 230.879 84.1962 183.254C84.8031 183.254 88.4971 183.316 91.7781 183.041C91.4034 205.904 91.4807 224.479 90.9775 227.629ZM36.2751 169.041C41.9455 154.041 35.8747 162.928 51.8913 170.441C66.0995 177.104 78.9132 177.941 94.7361 177.729C95.4849 179.779 96.0278 181.316 96.1441 181.479C80.9798 184.178 50.6901 180.229 36.2751 169.041ZM92.3331 220.104C93.0953 176.866 90.4218 183.466 96.4926 182.454C98.9078 188.916 100.097 191.979 100.936 194.166C92.5915 216.029 92.876 214.941 93.7028 215.416C94.8781 216.166 94.6069 215.116 92.3331 220.104ZM108.324 212.979C106.706 215.037 104.982 217.014 103.158 218.904C100.156 217.73 97.2496 216.338 94.4644 214.741C94.3486 214.666 99.9929 198.404 101.181 194.741C107.601 211.479 108.466 212.803 108.324 212.979ZM124.366 220.604C123.721 220.791 116.772 222.404 114.176 222.816C82.0132 158.678 111.295 182.004 72.2349 175.866C63.1932 174.428 50.8063 170.766 43.7538 164.303C38.3288 159.303 39.3363 161.178 43.1855 150.428C45.2522 150.829 73.5656 158.291 119.239 158.291C125.839 174.678 125.31 215.229 124.366 220.604ZM125.658 192.504C125.026 183.316 124.457 169.416 120.247 158.279C135.036 158.354 133.28 157.779 133.886 158.516C141.753 168.053 132.801 182.729 125.672 192.504H125.658ZM136.702 162.916C134.881 156.904 131.742 158.354 137.529 158.053C137.384 159.692 137.113 161.318 136.715 162.916H136.702ZM146.893 159.566C143.664 157.303 145.382 157.729 146.764 157.654C146.868 159.654 147.049 159.666 146.906 159.566H146.893ZM169.317 225.816C166.643 225.816 167.16 226.416 167.095 224.954C167.005 223.141 152.409 227.866 147.72 227.866C148.159 224.116 155.47 220.766 159.035 219.254C159.035 219.254 159.849 219.254 162.6 219.541C171.512 220.454 169.33 216.629 169.33 225.816H169.317ZM158.983 210.129C165.055 210.629 169.562 210.391 169.549 210.516C169.33 212.079 169.549 218.579 169.291 218.629C165.963 219.238 162.545 219.208 159.229 218.541C159.035 209.666 159.138 210.654 158.983 210.129ZM23.6038 142.354C21.5372 141.104 19.8451 139.991 20.8267 133.729C37.9026 147.729 138.368 160.891 229.392 136.366C239.726 133.579 241.25 128.454 241.237 128.866C240.901 140.254 237.465 142.004 227.106 144.691C140.745 167.053 44.2059 155.379 23.6038 142.354ZM174.354 225.954C174.018 223.866 173.915 212.928 173.889 210.479C176.602 210.404 175.788 212.579 177.222 194.729C177.312 194.803 178.513 173.904 179.301 168.229C179.405 167.441 179.741 167.254 179.715 168.229C179.715 168.854 179.715 169.678 179.65 170.729C178.578 199.766 177.067 194.479 180.038 196.979C177.79 227.504 178.824 227.604 174.354 225.954ZM183.964 170.141C183.655 170.141 184.184 170.529 179.909 166.754C182.686 166.391 207.034 166.254 219.395 156.941C220.441 159.779 220.195 159.116 222.068 164.104C211.051 168.591 195.576 170.666 183.964 170.141ZM225.207 224.891C225.013 224.666 218.219 177.504 216.953 166.766C223.851 164.641 221.578 162.816 225.143 172.266C228.514 222.341 230.749 227.579 225.207 224.891ZM249.064 231.241C248.741 230.691 218.684 153.741 216.643 147.866C219.227 147.266 222.52 146.466 224.484 145.966C231.691 174.716 249.53 220.053 251.157 230.541C251.557 233.091 250.02 232.954 249.064 231.241Z" fill="#312E28"/>
</svg>
